<?xml version="1.0" encoding="UTF-8" standalone="no"?>
<!DOCTYPE svg PUBLIC "-//W3C//DTD SVG 1.1//EN"
 "http://www.w3.org/Graphics/SVG/1.1/DTD/svg11.dtd">
<!-- Generated by graphviz version 2.43.0 (0)
 -->
<!-- Title: y Pages: 1 -->
<svg width="1224pt" height="305pt"
 viewBox="0.00 0.00 1223.50 305.00" xmlns="http://www.w3.org/2000/svg" xmlns:xlink="http://www.w3.org/1999/xlink">
<g id="graph0" class="graph" transform="scale(1 1) rotate(0) translate(4 301)">
<title>y</title>
<polygon fill="white" stroke="transparent" points="-4,4 -4,-301 1219.5,-301 1219.5,4 -4,4"/>
<!-- mulle&#45;sourcetree -->
<g id="node1" class="node">
<title>mulle&#45;sourcetree</title>
<polygon fill="none" stroke="magenta" stroke-width="2" points="351,-210 214,-210 214,-174 351,-174 351,-210"/>
<text text-anchor="middle" x="282.5" y="-188.3" font-family="Times,serif" font-size="14.00" fill="magenta">mulle&#45;sourcetree</text>
</g>
<!-- .mulle/etc/sourcetree/config -->
<g id="node2" class="node">
<title>.mulle/etc/sourcetree/config</title>
<polygon fill="brown" stroke="orange" points="209,-123 0,-123 0,-87 215,-87 215,-117 209,-123"/>
<polyline fill="none" stroke="orange" points="209,-123 209,-117 "/>
<polyline fill="none" stroke="orange" points="215,-117 209,-117 "/>
<text text-anchor="middle" x="107.5" y="-101.3" font-family="Times,serif" font-size="14.00" fill="white">.mulle/etc/sourcetree/config</text>
</g>
<!-- mulle&#45;sourcetree&#45;&gt;.mulle/etc/sourcetree/config -->
<g id="edge1" class="edge">
<title>mulle&#45;sourcetree&#45;&gt;.mulle/etc/sourcetree/config</title>
<path fill="none" stroke="black" d="M233.68,-173.97C219.84,-168.68 204.9,-162.51 191.5,-156 174.94,-147.96 157.33,-137.75 142.53,-128.66"/>
<polygon fill="black" stroke="black" points="144.06,-125.49 133.72,-123.18 140.36,-131.43 144.06,-125.49"/>
<text text-anchor="middle" x="214" y="-144.8" font-family="Times,serif" font-size="14.00"> reads</text>
</g>
<!-- mulle&#45;fetch -->
<g id="node3" class="node">
<title>mulle&#45;fetch</title>
<polygon fill="none" stroke="magenta" stroke-width="2" points="330,-123 233,-123 233,-87 330,-87 330,-123"/>
<text text-anchor="middle" x="281.5" y="-101.3" font-family="Times,serif" font-size="14.00" fill="magenta">mulle&#45;fetch</text>
</g>
<!-- mulle&#45;sourcetree&#45;&gt;mulle&#45;fetch -->
<g id="edge2" class="edge">
<title>mulle&#45;sourcetree&#45;&gt;mulle&#45;fetch</title>
<path fill="none" stroke="black" d="M255.46,-173.76C249.82,-168.77 244.64,-162.8 241.5,-156 237.31,-146.91 241.01,-138.04 247.57,-130.35"/>
<polygon fill="black" stroke="black" points="250.26,-132.61 254.9,-123.08 245.33,-127.64 250.26,-132.61"/>
<text text-anchor="middle" x="275.5" y="-144.8" font-family="Times,serif" font-size="14.00"> executes</text>
</g>
<!-- mulle&#45;sourcetree&#45;&gt;mulle&#45;fetch -->
<g id="edge3" class="edge">
<title>mulle&#45;sourcetree&#45;&gt;mulle&#45;fetch</title>
<path fill="none" stroke="black" d="M300.22,-173.58C307.54,-164.25 313.48,-152.36 309.5,-141 308.33,-137.67 306.7,-134.42 304.8,-131.32"/>
<polygon fill="black" stroke="black" points="307.58,-129.19 298.92,-123.09 301.88,-133.26 307.58,-129.19"/>
</g>
<!-- Internet -->
<g id="node4" class="node">
<title>Internet</title>
<polygon fill="green" stroke="white" points="337.57,-18 309.54,-36 253.46,-36 225.43,-18 253.46,0 309.54,0 337.57,-18"/>
<text text-anchor="middle" x="281.5" y="-14.3" font-family="Times,serif" font-size="14.00" fill="white">Internet</text>
</g>
<!-- mulle&#45;fetch&#45;&gt;Internet -->
<g id="edge4" class="edge">
<title>mulle&#45;fetch&#45;&gt;Internet</title>
<path fill="none" stroke="black" d="M281.5,-86.8C281.5,-75.16 281.5,-59.55 281.5,-46.24"/>
<polygon fill="black" stroke="black" points="285,-46.18 281.5,-36.18 278,-46.18 285,-46.18"/>
<text text-anchor="middle" x="304" y="-57.8" font-family="Times,serif" font-size="14.00"> reads</text>
</g>
<!-- stash/ -->
<g id="node5" class="node">
<title>stash/</title>
<polygon fill="brown" stroke="orange" points="691,-36 688,-40 667,-40 664,-36 632,-36 632,0 691,0 691,-36"/>
<text text-anchor="middle" x="661.5" y="-14.3" font-family="Times,serif" font-size="14.00" fill="white">stash/</text>
</g>
<!-- mulle&#45;fetch&#45;&gt;stash/ -->
<g id="edge5" class="edge">
<title>mulle&#45;fetch&#45;&gt;stash/</title>
<path fill="none" stroke="black" d="M330.16,-89.44C333.31,-88.59 336.45,-87.77 339.5,-87 440.33,-61.62 560.51,-37.96 621.59,-26.4"/>
<polygon fill="black" stroke="black" points="622.4,-29.81 631.58,-24.52 621.11,-22.93 622.4,-29.81"/>
<text text-anchor="middle" x="504.5" y="-57.8" font-family="Times,serif" font-size="14.00"> writes</text>
</g>
<!-- mulle&#45;craft -->
<g id="node6" class="node">
<title>mulle&#45;craft</title>
<polygon fill="none" stroke="magenta" stroke-width="2" points="860,-210 765,-210 765,-174 860,-174 860,-210"/>
<text text-anchor="middle" x="812.5" y="-188.3" font-family="Times,serif" font-size="14.00" fill="magenta">mulle&#45;craft</text>
</g>
<!-- .mulle/var/&lt;hostname&gt;&#45;&lt;username&gt;/sde/cache/craftorder -->
<g id="node7" class="node">
<title>.mulle/var/&lt;hostname&gt;&#45;&lt;username&gt;/sde/cache/craftorder</title>
<polygon fill="none" stroke="black" points="785,-123 348,-123 348,-87 785,-87 785,-123"/>
<text text-anchor="middle" x="566.5" y="-101.3" font-family="Times,serif" font-size="14.00">.mulle/var/&lt;hostname&gt;&#45;&lt;username&gt;/sde/cache/craftorder</text>
</g>
<!-- mulle&#45;craft&#45;&gt;.mulle/var/&lt;hostname&gt;&#45;&lt;username&gt;/sde/cache/craftorder -->
<g id="edge6" class="edge">
<title>mulle&#45;craft&#45;&gt;.mulle/var/&lt;hostname&gt;&#45;&lt;username&gt;/sde/cache/craftorder</title>
<path fill="none" stroke="black" d="M764.78,-174.51C724.98,-160.76 668.11,-141.11 625.47,-126.37"/>
<polygon fill="black" stroke="black" points="626.37,-122.98 615.78,-123.03 624.08,-129.6 626.37,-122.98"/>
<text text-anchor="middle" x="726" y="-144.8" font-family="Times,serif" font-size="14.00"> reads</text>
</g>
<!-- mulle&#45;make -->
<g id="node8" class="node">
<title>mulle&#45;make</title>
<polygon fill="none" stroke="magenta" stroke-width="2" points="902,-123 803,-123 803,-87 902,-87 902,-123"/>
<text text-anchor="middle" x="852.5" y="-101.3" font-family="Times,serif" font-size="14.00" fill="magenta">mulle&#45;make</text>
</g>
<!-- mulle&#45;craft&#45;&gt;mulle&#45;make -->
<g id="edge7" class="edge">
<title>mulle&#45;craft&#45;&gt;mulle&#45;make</title>
<path fill="none" stroke="black" d="M785.27,-173.8C773.96,-164.43 765.02,-152.44 772.5,-141 775.58,-136.29 783.61,-131.37 793.45,-126.75"/>
<polygon fill="black" stroke="black" points="795.15,-129.83 802.91,-122.61 792.35,-123.41 795.15,-129.83"/>
<text text-anchor="middle" x="806.5" y="-144.8" font-family="Times,serif" font-size="14.00"> executes</text>
</g>
<!-- mulle&#45;craft&#45;&gt;mulle&#45;make -->
<g id="edge8" class="edge">
<title>mulle&#45;craft&#45;&gt;mulle&#45;make</title>
<path fill="none" stroke="black" d="M828.67,-173.87C833.05,-168.48 837.42,-162.29 840.5,-156 843.95,-148.94 846.45,-140.83 848.24,-133.22"/>
<polygon fill="black" stroke="black" points="851.69,-133.8 850.27,-123.3 844.84,-132.4 851.69,-133.8"/>
</g>
<!-- mulle&#45;dispense -->
<g id="node10" class="node">
<title>mulle&#45;dispense</title>
<polygon fill="none" stroke="magenta" stroke-width="2" points="1044.5,-123 920.5,-123 920.5,-87 1044.5,-87 1044.5,-123"/>
<text text-anchor="middle" x="982.5" y="-101.3" font-family="Times,serif" font-size="14.00" fill="magenta">mulle&#45;dispense</text>
</g>
<!-- mulle&#45;craft&#45;&gt;mulle&#45;dispense -->
<g id="edge11" class="edge">
<title>mulle&#45;craft&#45;&gt;mulle&#45;dispense</title>
<path fill="none" stroke="black" d="M839.88,-173.84C856.53,-163.72 878.39,-150.98 898.5,-141 908.25,-136.16 918.84,-131.39 929.11,-127"/>
<polygon fill="black" stroke="black" points="930.55,-130.19 938.41,-123.09 927.84,-123.74 930.55,-130.19"/>
<text text-anchor="middle" x="932.5" y="-144.8" font-family="Times,serif" font-size="14.00"> executes</text>
</g>
<!-- mulle&#45;craft&#45;&gt;mulle&#45;dispense -->
<g id="edge12" class="edge">
<title>mulle&#45;craft&#45;&gt;mulle&#45;dispense</title>
<path fill="none" stroke="black" d="M860.06,-176.16C862.91,-175.4 865.74,-174.67 868.5,-174 911.53,-163.55 933.25,-185.25 966.5,-156 973.12,-150.18 977.02,-141.62 979.31,-133.23"/>
<polygon fill="black" stroke="black" points="982.77,-133.77 981.38,-123.26 975.92,-132.34 982.77,-133.77"/>
</g>
<!-- mulle&#45;make&#45;&gt;stash/ -->
<g id="edge9" class="edge">
<title>mulle&#45;make&#45;&gt;stash/</title>
<path fill="none" stroke="black" d="M813.85,-86.8C780.81,-72.1 733.5,-51.04 700.39,-36.31"/>
<polygon fill="black" stroke="black" points="701.59,-33.01 691.03,-32.14 698.75,-39.41 701.59,-33.01"/>
<text text-anchor="middle" x="790" y="-57.8" font-family="Times,serif" font-size="14.00"> reads</text>
</g>
<!-- kitchen/ -->
<g id="node9" class="node">
<title>kitchen/</title>
<polygon fill="brown" stroke="orange" points="905.5,-36 902.5,-40 881.5,-40 878.5,-36 831.5,-36 831.5,0 905.5,0 905.5,-36"/>
<text text-anchor="middle" x="868.5" y="-14.3" font-family="Times,serif" font-size="14.00" fill="white">kitchen/</text>
</g>
<!-- mulle&#45;make&#45;&gt;kitchen/ -->
<g id="edge10" class="edge">
<title>mulle&#45;make&#45;&gt;kitchen/</title>
<path fill="none" stroke="black" d="M851.23,-86.69C850.92,-76.97 851.19,-64.69 853.5,-54 854.11,-51.15 854.96,-48.25 855.94,-45.39"/>
<polygon fill="black" stroke="black" points="859.23,-46.6 859.66,-36.01 852.72,-44.02 859.23,-46.6"/>
<text text-anchor="middle" x="878.5" y="-57.8" font-family="Times,serif" font-size="14.00"> writes</text>
</g>
<!-- mulle&#45;dispense&#45;&gt;kitchen/ -->
<g id="edge13" class="edge">
<title>mulle&#45;dispense&#45;&gt;kitchen/</title>
<path fill="none" stroke="black" d="M959.43,-86.8C942.2,-73.95 918.47,-56.26 899.57,-42.17"/>
<polygon fill="black" stroke="black" points="901.64,-39.35 891.54,-36.18 897.46,-44.96 901.64,-39.35"/>
<text text-anchor="middle" x="954" y="-57.8" font-family="Times,serif" font-size="14.00"> reads</text>
</g>
<!-- dependency/ -->
<g id="node11" class="node">
<title>dependency/</title>
<polygon fill="brown" stroke="orange" points="1047,-36 1044,-40 1023,-40 1020,-36 940,-36 940,0 1047,0 1047,-36"/>
<text text-anchor="middle" x="993.5" y="-14.3" font-family="Times,serif" font-size="14.00" fill="white">dependency/</text>
</g>
<!-- mulle&#45;dispense&#45;&gt;dependency/ -->
<g id="edge14" class="edge">
<title>mulle&#45;dispense&#45;&gt;dependency/</title>
<path fill="none" stroke="black" d="M984.73,-86.8C986.23,-75.16 988.25,-59.55 989.98,-46.24"/>
<polygon fill="black" stroke="black" points="993.46,-46.54 991.28,-36.18 986.52,-45.64 993.46,-46.54"/>
<text text-anchor="middle" x="1013.5" y="-57.8" font-family="Times,serif" font-size="14.00"> writes</text>
</g>
<!-- mulle&#45;sde -->
<g id="node12" class="node">
<title>mulle&#45;sde</title>
<polygon fill="none" stroke="blue" stroke-width="3" points="855.5,-297 769.5,-297 769.5,-261 855.5,-261 855.5,-297"/>
<text text-anchor="middle" x="812.5" y="-275.3" font-family="Times,serif" font-size="14.00" fill="blue">mulle&#45;sde</text>
</g>
<!-- mulle&#45;sde&#45;&gt;mulle&#45;sourcetree -->
<g id="edge15" class="edge">
<title>mulle&#45;sde&#45;&gt;mulle&#45;sourcetree</title>
<path fill="none" stroke="black" d="M769.13,-271.04C679.85,-256.73 474.45,-223.78 361.13,-205.61"/>
<polygon fill="black" stroke="black" points="361.55,-202.13 351.13,-204.01 360.45,-209.05 361.55,-202.13"/>
<text text-anchor="middle" x="612.5" y="-231.8" font-family="Times,serif" font-size="14.00"> executes</text>
</g>
<!-- mulle&#45;sde&#45;&gt;mulle&#45;craft -->
<g id="edge17" class="edge">
<title>mulle&#45;sde&#45;&gt;mulle&#45;craft</title>
<path fill="none" stroke="black" d="M812.5,-260.8C812.5,-249.16 812.5,-233.55 812.5,-220.24"/>
<polygon fill="black" stroke="black" points="816,-220.18 812.5,-210.18 809,-220.18 816,-220.18"/>
<text text-anchor="middle" x="846.5" y="-231.8" font-family="Times,serif" font-size="14.00"> executes</text>
</g>
<!-- .mulle/var/&lt;hostname&gt;/sde/cache/craftorder -->
<g id="node13" class="node">
<title>.mulle/var/&lt;hostname&gt;/sde/cache/craftorder</title>
<polygon fill="brown" stroke="orange" points="1209.5,-210 877.5,-210 877.5,-174 1215.5,-174 1215.5,-204 1209.5,-210"/>
<polyline fill="none" stroke="orange" points="1209.5,-210 1209.5,-204 "/>
<polyline fill="none" stroke="orange" points="1215.5,-204 1209.5,-204 "/>
<text text-anchor="middle" x="1046.5" y="-188.3" font-family="Times,serif" font-size="14.00" fill="white">.mulle/var/&lt;hostname&gt;/sde/cache/craftorder</text>
</g>
<!-- mulle&#45;sde&#45;&gt;.mulle/var/&lt;hostname&gt;/sde/cache/craftorder -->
<g id="edge16" class="edge">
<title>mulle&#45;sde&#45;&gt;.mulle/var/&lt;hostname&gt;/sde/cache/craftorder</title>
<path fill="none" stroke="black" d="M855.69,-262.31C893.47,-248.59 948.6,-228.56 989.89,-213.56"/>
<polygon fill="black" stroke="black" points="991.34,-216.76 999.54,-210.06 988.95,-210.18 991.34,-216.76"/>
<text text-anchor="middle" x="968.5" y="-231.8" font-family="Times,serif" font-size="14.00"> writes</text>
</g>
</g>
</svg>
