<?xml version="1.0" encoding="UTF-8" standalone="no"?>
<!DOCTYPE svg PUBLIC "-//W3C//DTD SVG 1.1//EN"
 "http://www.w3.org/Graphics/SVG/1.1/DTD/svg11.dtd">
<!-- Generated by graphviz version 2.43.0 (0)
 -->
<!-- Title: G Pages: 1 -->
<svg width="360pt" height="404pt"
 viewBox="0.00 0.00 360.00 404.00" xmlns="http://www.w3.org/2000/svg" xmlns:xlink="http://www.w3.org/1999/xlink">
<g id="graph0" class="graph" transform="scale(1 1) rotate(0) translate(4 400)">
<title>G</title>
<polygon fill="white" stroke="transparent" points="-4,4 -4,-400 356,-400 356,4 -4,4"/>
<!-- project -->
<g id="node1" class="node">
<title>project</title>
<polygon fill="none" stroke="black" points="191.5,-396 188.5,-400 167.5,-400 164.5,-396 124.5,-396 124.5,-360 191.5,-360 191.5,-396"/>
<text text-anchor="middle" x="158" y="-374.3" font-family="Times,serif" font-size="14.00">project</text>
</g>
<!-- .mulle -->
<g id="node2" class="node">
<title>.mulle</title>
<polygon fill="none" stroke="black" points="150.5,-324 147.5,-328 126.5,-328 123.5,-324 89.5,-324 89.5,-288 150.5,-288 150.5,-324"/>
<text text-anchor="middle" x="120" y="-302.3" font-family="Times,serif" font-size="14.00">.mulle</text>
</g>
<!-- project&#45;&gt;.mulle -->
<g id="edge1" class="edge">
<title>project&#45;&gt;.mulle</title>
<path fill="none" stroke="black" d="M148.61,-359.7C144.24,-351.64 138.94,-341.89 134.1,-332.98"/>
<polygon fill="black" stroke="black" points="137.13,-331.22 129.29,-324.1 130.98,-334.56 137.13,-331.22"/>
</g>
<!-- src -->
<g id="node3" class="node">
<title>src</title>
<polygon fill="none" stroke="black" points="225,-324 222,-328 201,-328 198,-324 171,-324 171,-288 225,-288 225,-324"/>
<text text-anchor="middle" x="198" y="-302.3" font-family="Times,serif" font-size="14.00">src</text>
</g>
<!-- project&#45;&gt;src -->
<g id="edge2" class="edge">
<title>project&#45;&gt;src</title>
<path fill="none" stroke="black" d="M167.89,-359.7C172.49,-351.64 178.06,-341.89 183.15,-332.98"/>
<polygon fill="black" stroke="black" points="186.3,-334.52 188.23,-324.1 180.23,-331.05 186.3,-334.52"/>
</g>
<!-- share -->
<g id="node8" class="node">
<title>share</title>
<polygon fill="none" stroke="black" points="143,-252 140,-256 119,-256 116,-252 87,-252 87,-216 143,-216 143,-252"/>
<text text-anchor="middle" x="115" y="-230.3" font-family="Times,serif" font-size="14.00">share</text>
</g>
<!-- .mulle&#45;&gt;share -->
<g id="edge3" class="edge">
<title>.mulle&#45;&gt;share</title>
<path fill="none" stroke="black" d="M118.76,-287.7C118.21,-279.98 117.55,-270.71 116.94,-262.11"/>
<polygon fill="black" stroke="black" points="120.43,-261.83 116.22,-252.1 113.44,-262.33 120.43,-261.83"/>
</g>
<!-- demo.txt -->
<g id="node11" class="node">
<title>demo.txt</title>
<polygon fill="none" stroke="#3867d6" points="235,-252 161,-252 161,-216 241,-216 241,-246 235,-252"/>
<polyline fill="none" stroke="#3867d6" points="235,-252 235,-246 "/>
<polyline fill="none" stroke="#3867d6" points="241,-246 235,-246 "/>
<text text-anchor="middle" x="201" y="-230.3" font-family="Times,serif" font-size="14.00" fill="#3867d6">demo.txt</text>
</g>
<!-- src&#45;&gt;demo.txt -->
<g id="edge10" class="edge">
<title>src&#45;&gt;demo.txt</title>
<path fill="none" stroke="black" d="M198.74,-287.7C199.07,-279.98 199.47,-270.71 199.84,-262.11"/>
<polygon fill="black" stroke="black" points="203.34,-262.25 200.27,-252.1 196.34,-261.95 203.34,-262.25"/>
</g>
<!-- match -->
<g id="node4" class="node">
<title>match</title>
<polygon fill="none" stroke="black" points="103.5,-180 100.5,-184 79.5,-184 76.5,-180 42.5,-180 42.5,-144 103.5,-144 103.5,-180"/>
<text text-anchor="middle" x="73" y="-158.3" font-family="Times,serif" font-size="14.00">match</text>
</g>
<!-- match.d -->
<g id="node12" class="node">
<title>match.d</title>
<polygon fill="none" stroke="black" points="93,-108 90,-112 69,-112 66,-108 19,-108 19,-72 93,-72 93,-108"/>
<text text-anchor="middle" x="56" y="-86.3" font-family="Times,serif" font-size="14.00">match.d</text>
</g>
<!-- match&#45;&gt;match.d -->
<g id="edge11" class="edge">
<title>match&#45;&gt;match.d</title>
<path fill="none" stroke="black" d="M68.8,-143.7C66.9,-135.9 64.62,-126.51 62.52,-117.83"/>
<polygon fill="black" stroke="black" points="65.92,-117 60.15,-108.1 59.11,-118.65 65.92,-117"/>
</g>
<!-- monitor -->
<g id="node5" class="node">
<title>monitor</title>
<polygon fill="none" stroke="black" points="202.5,-180 199.5,-184 178.5,-184 175.5,-180 129.5,-180 129.5,-144 202.5,-144 202.5,-180"/>
<text text-anchor="middle" x="166" y="-158.3" font-family="Times,serif" font-size="14.00">monitor</text>
</g>
<!-- bin -->
<g id="node6" class="node">
<title>bin</title>
<polygon fill="none" stroke="black" points="193,-108 190,-112 169,-112 166,-108 139,-108 139,-72 193,-72 193,-108"/>
<text text-anchor="middle" x="166" y="-86.3" font-family="Times,serif" font-size="14.00">bin</text>
</g>
<!-- monitor&#45;&gt;bin -->
<g id="edge6" class="edge">
<title>monitor&#45;&gt;bin</title>
<path fill="none" stroke="black" d="M166,-143.7C166,-135.98 166,-126.71 166,-118.11"/>
<polygon fill="black" stroke="black" points="169.5,-118.1 166,-108.1 162.5,-118.1 169.5,-118.1"/>
</g>
<!-- libexec -->
<g id="node7" class="node">
<title>libexec</title>
<polygon fill="none" stroke="black" points="303.5,-108 300.5,-112 279.5,-112 276.5,-108 236.5,-108 236.5,-72 303.5,-72 303.5,-108"/>
<text text-anchor="middle" x="270" y="-86.3" font-family="Times,serif" font-size="14.00">libexec</text>
</g>
<!-- monitor&#45;&gt;libexec -->
<g id="edge7" class="edge">
<title>monitor&#45;&gt;libexec</title>
<path fill="none" stroke="black" d="M191.44,-143.88C204.79,-134.89 221.32,-123.76 235.78,-114.03"/>
<polygon fill="black" stroke="black" points="238.12,-116.68 244.46,-108.19 234.21,-110.87 238.12,-116.68"/>
</g>
<!-- text&#45;callback -->
<g id="node9" class="node">
<title>text&#45;callback</title>
<polygon fill="none" stroke="#fa8231" points="213.5,-36 112.5,-36 112.5,0 219.5,0 219.5,-30 213.5,-36"/>
<polyline fill="none" stroke="#fa8231" points="213.5,-36 213.5,-30 "/>
<polyline fill="none" stroke="#fa8231" points="219.5,-30 213.5,-30 "/>
<text text-anchor="middle" x="166" y="-14.3" font-family="Times,serif" font-size="14.00" fill="#fa8231">text&#45;callback</text>
</g>
<!-- bin&#45;&gt;text&#45;callback -->
<g id="edge8" class="edge">
<title>bin&#45;&gt;text&#45;callback</title>
<path fill="none" stroke="black" d="M166,-71.7C166,-63.98 166,-54.71 166,-46.11"/>
<polygon fill="black" stroke="black" points="169.5,-46.1 166,-36.1 162.5,-46.1 169.5,-46.1"/>
</g>
<!-- aspell&#45;task.sh -->
<g id="node10" class="node">
<title>aspell&#45;task.sh</title>
<polygon fill="none" stroke="#8854d0" points="346,-36 238,-36 238,0 352,0 352,-30 346,-36"/>
<polyline fill="none" stroke="#8854d0" points="346,-36 346,-30 "/>
<polyline fill="none" stroke="#8854d0" points="352,-30 346,-30 "/>
<text text-anchor="middle" x="295" y="-14.3" font-family="Times,serif" font-size="14.00" fill="#8854d0">aspell&#45;task.sh</text>
</g>
<!-- libexec&#45;&gt;aspell&#45;task.sh -->
<g id="edge9" class="edge">
<title>libexec&#45;&gt;aspell&#45;task.sh</title>
<path fill="none" stroke="black" d="M276.18,-71.7C279,-63.81 282.39,-54.3 285.52,-45.55"/>
<polygon fill="black" stroke="black" points="288.82,-46.7 288.89,-36.1 282.23,-44.34 288.82,-46.7"/>
</g>
<!-- share&#45;&gt;match -->
<g id="edge5" class="edge">
<title>share&#45;&gt;match</title>
<path fill="none" stroke="black" d="M104.62,-215.7C99.74,-207.56 93.81,-197.69 88.42,-188.7"/>
<polygon fill="black" stroke="black" points="91.41,-186.88 83.26,-180.1 85.41,-190.48 91.41,-186.88"/>
</g>
<!-- share&#45;&gt;monitor -->
<g id="edge4" class="edge">
<title>share&#45;&gt;monitor</title>
<path fill="none" stroke="black" d="M127.61,-215.7C133.6,-207.47 140.88,-197.48 147.48,-188.42"/>
<polygon fill="black" stroke="black" points="150.48,-190.25 153.54,-180.1 144.82,-186.13 150.48,-190.25"/>
</g>
<!-- 00&#45;text&#45;&#45;all -->
<g id="node13" class="node">
<title>00&#45;text&#45;&#45;all</title>
<polygon fill="none" stroke="#20bf6b" points="88,-36 0,-36 0,0 94,0 94,-30 88,-36"/>
<polyline fill="none" stroke="#20bf6b" points="88,-36 88,-30 "/>
<polyline fill="none" stroke="#20bf6b" points="94,-30 88,-30 "/>
<text text-anchor="middle" x="47" y="-14.3" font-family="Times,serif" font-size="14.00" fill="#20bf6b">00&#45;text&#45;&#45;all</text>
</g>
<!-- match.d&#45;&gt;00&#45;text&#45;&#45;all -->
<g id="edge12" class="edge">
<title>match.d&#45;&gt;00&#45;text&#45;&#45;all</title>
<path fill="none" stroke="black" d="M53.78,-71.7C52.78,-63.98 51.59,-54.71 50.49,-46.11"/>
<polygon fill="black" stroke="black" points="53.95,-45.58 49.2,-36.1 47,-46.47 53.95,-45.58"/>
</g>
</g>
</svg>
