<?xml version="1.0" encoding="UTF-8" standalone="no"?>
<!DOCTYPE svg PUBLIC "-//W3C//DTD SVG 1.1//EN"
 "http://www.w3.org/Graphics/SVG/1.1/DTD/svg11.dtd">
<!-- Generated by graphviz version 2.43.0 (0)
 -->
<!-- Title: G Pages: 1 -->
<svg width="681pt" height="291pt"
 viewBox="0.00 0.00 681.00 291.00" xmlns="http://www.w3.org/2000/svg" xmlns:xlink="http://www.w3.org/1999/xlink">
<g id="graph0" class="graph" transform="scale(1 1) rotate(0) translate(4 287)">
<title>G</title>
<polygon fill="white" stroke="transparent" points="-4,4 -4,-287 677,-287 677,4 -4,4"/>
<!-- CMakeLists.txt -->
<g id="node1" class="node">
<title>CMakeLists.txt</title>
<polygon fill="none" stroke="#16a085" points="379.5,-210 260.5,-210 260.5,-174 385.5,-174 385.5,-204 379.5,-210"/>
<polyline fill="none" stroke="#16a085" points="379.5,-210 379.5,-204 "/>
<polyline fill="none" stroke="#16a085" points="385.5,-204 379.5,-204 "/>
<text text-anchor="middle" x="323" y="-188.3" font-family="Times,serif" font-size="14.00" fill="#16a085">CMakeLists.txt</text>
</g>
<!-- HeadersAndSources.cmake -->
<g id="node3" class="node">
<title>HeadersAndSources.cmake</title>
<polygon fill="none" stroke="#16a085" points="297,-123 91,-123 91,-87 303,-87 303,-117 297,-123"/>
<polyline fill="none" stroke="#16a085" points="297,-123 297,-117 "/>
<polyline fill="none" stroke="#16a085" points="303,-117 297,-117 "/>
<text text-anchor="middle" x="197" y="-101.3" font-family="Times,serif" font-size="14.00" fill="#16a085">HeadersAndSources.cmake</text>
</g>
<!-- CMakeLists.txt&#45;&gt;HeadersAndSources.cmake -->
<g id="edge2" class="edge">
<title>CMakeLists.txt&#45;&gt;HeadersAndSources.cmake</title>
<path fill="none" stroke="black" stroke-dasharray="1,5" d="M297.5,-173.8C278.29,-160.84 251.76,-142.94 230.78,-128.79"/>
<polygon fill="black" stroke="black" points="232.71,-125.87 222.46,-123.18 228.79,-131.67 232.71,-125.87"/>
<text text-anchor="middle" x="306" y="-144.8" font-family="Times,serif" font-size="14.00">include (2)</text>
</g>
<!-- DependenciesAndLibraries.cmake -->
<g id="node4" class="node">
<title>DependenciesAndLibraries.cmake</title>
<polygon fill="none" stroke="#16a085" points="574.5,-123 321.5,-123 321.5,-87 580.5,-87 580.5,-117 574.5,-123"/>
<polyline fill="none" stroke="#16a085" points="574.5,-123 574.5,-117 "/>
<polyline fill="none" stroke="#16a085" points="580.5,-117 574.5,-117 "/>
<text text-anchor="middle" x="451" y="-101.3" font-family="Times,serif" font-size="14.00" fill="#16a085">DependenciesAndLibraries.cmake</text>
</g>
<!-- CMakeLists.txt&#45;&gt;DependenciesAndLibraries.cmake -->
<g id="edge3" class="edge">
<title>CMakeLists.txt&#45;&gt;DependenciesAndLibraries.cmake</title>
<path fill="none" stroke="black" stroke-dasharray="1,5" d="M348.9,-173.8C368.42,-160.84 395.37,-142.94 416.68,-128.79"/>
<polygon fill="black" stroke="black" points="418.74,-131.62 425.14,-123.18 414.87,-125.79 418.74,-131.62"/>
<text text-anchor="middle" x="433" y="-144.8" font-family="Times,serif" font-size="14.00">include (5)</text>
</g>
<!-- project -->
<g id="node2" class="node">
<title>project</title>
<polygon fill="none" stroke="#7f8c8d" points="356.5,-283 353.5,-287 332.5,-287 329.5,-283 289.5,-283 289.5,-247 356.5,-247 356.5,-283"/>
<text text-anchor="middle" x="323" y="-261.3" font-family="Times,serif" font-size="14.00" fill="#7f8c8d">project</text>
</g>
<!-- project&#45;&gt;CMakeLists.txt -->
<g id="edge1" class="edge">
<title>project&#45;&gt;CMakeLists.txt</title>
<path fill="none" stroke="#7f8c8d" d="M323,-246.81C323,-235.65 323,-221.16 323,-210.03"/>
</g>
<!-- _Headers.cmake -->
<g id="node5" class="node">
<title>_Headers.cmake</title>
<polygon fill="none" stroke="#9b59b6" points="128,-36 0,-36 0,0 134,0 134,-30 128,-36"/>
<polyline fill="none" stroke="#9b59b6" points="128,-36 128,-30 "/>
<polyline fill="none" stroke="#9b59b6" points="134,-30 128,-30 "/>
<text text-anchor="middle" x="67" y="-14.3" font-family="Times,serif" font-size="14.00" fill="#9b59b6">_Headers.cmake</text>
</g>
<!-- HeadersAndSources.cmake&#45;&gt;_Headers.cmake -->
<g id="edge4" class="edge">
<title>HeadersAndSources.cmake&#45;&gt;_Headers.cmake</title>
<path fill="none" stroke="black" stroke-dasharray="1,5" d="M158.69,-86.84C148.15,-81.58 136.89,-75.47 127,-69 115.27,-61.33 103.23,-51.7 93.04,-42.95"/>
<polygon fill="black" stroke="black" points="95.14,-40.13 85.31,-36.17 90.52,-45.39 95.14,-40.13"/>
<text text-anchor="middle" x="165" y="-57.8" font-family="Times,serif" font-size="14.00">include (3)</text>
</g>
<!-- _Sources.cmake -->
<g id="node6" class="node">
<title>_Sources.cmake</title>
<polygon fill="none" stroke="#9b59b6" points="277.5,-36 152.5,-36 152.5,0 283.5,0 283.5,-30 277.5,-36"/>
<polyline fill="none" stroke="#9b59b6" points="277.5,-36 277.5,-30 "/>
<polyline fill="none" stroke="#9b59b6" points="283.5,-30 277.5,-30 "/>
<text text-anchor="middle" x="218" y="-14.3" font-family="Times,serif" font-size="14.00" fill="#9b59b6">_Sources.cmake</text>
</g>
<!-- HeadersAndSources.cmake&#45;&gt;_Sources.cmake -->
<g id="edge5" class="edge">
<title>HeadersAndSources.cmake&#45;&gt;_Sources.cmake</title>
<path fill="none" stroke="black" stroke-dasharray="1,5" d="M201.25,-86.8C204.12,-75.16 207.98,-59.55 211.27,-46.24"/>
<polygon fill="black" stroke="black" points="214.76,-46.72 213.76,-36.18 207.96,-45.04 214.76,-46.72"/>
<text text-anchor="middle" x="247" y="-57.8" font-family="Times,serif" font-size="14.00">include (4)</text>
</g>
<!-- _Dependencies.cmake -->
<g id="node7" class="node">
<title>_Dependencies.cmake</title>
<polygon fill="none" stroke="#9b59b6" points="510.5,-36 343.5,-36 343.5,0 516.5,0 516.5,-30 510.5,-36"/>
<polyline fill="none" stroke="#9b59b6" points="510.5,-36 510.5,-30 "/>
<polyline fill="none" stroke="#9b59b6" points="516.5,-30 510.5,-30 "/>
<text text-anchor="middle" x="430" y="-14.3" font-family="Times,serif" font-size="14.00" fill="#9b59b6">_Dependencies.cmake</text>
</g>
<!-- DependenciesAndLibraries.cmake&#45;&gt;_Dependencies.cmake -->
<g id="edge6" class="edge">
<title>DependenciesAndLibraries.cmake&#45;&gt;_Dependencies.cmake</title>
<path fill="none" stroke="black" stroke-dasharray="1,5" d="M446.75,-86.8C443.88,-75.16 440.02,-59.55 436.73,-46.24"/>
<polygon fill="black" stroke="black" points="440.04,-45.04 434.24,-36.18 433.24,-46.72 440.04,-45.04"/>
<text text-anchor="middle" x="480" y="-57.8" font-family="Times,serif" font-size="14.00">include (6)</text>
</g>
<!-- _Libraries.cmake -->
<g id="node8" class="node">
<title>_Libraries.cmake</title>
<polygon fill="none" stroke="#9b59b6" points="667,-36 535,-36 535,0 673,0 673,-30 667,-36"/>
<polyline fill="none" stroke="#9b59b6" points="667,-36 667,-30 "/>
<polyline fill="none" stroke="#9b59b6" points="673,-30 667,-30 "/>
<text text-anchor="middle" x="604" y="-14.3" font-family="Times,serif" font-size="14.00" fill="#9b59b6">_Libraries.cmake</text>
</g>
<!-- DependenciesAndLibraries.cmake&#45;&gt;_Libraries.cmake -->
<g id="edge7" class="edge">
<title>DependenciesAndLibraries.cmake&#45;&gt;_Libraries.cmake</title>
<path fill="none" stroke="black" stroke-dasharray="1,5" d="M487.08,-86.99C498.37,-81.46 510.8,-75.16 522,-69 537.61,-60.42 554.47,-50.29 568.82,-41.4"/>
<polygon fill="black" stroke="black" points="570.76,-44.32 577.4,-36.05 567.06,-38.38 570.76,-44.32"/>
<text text-anchor="middle" x="586" y="-57.8" font-family="Times,serif" font-size="14.00">include (7)</text>
</g>
</g>
</svg>
