<?xml version="1.0" encoding="UTF-8" standalone="no"?>
<!DOCTYPE svg PUBLIC "-//W3C//DTD SVG 1.1//EN"
 "http://www.w3.org/Graphics/SVG/1.1/DTD/svg11.dtd">
<!-- Generated by graphviz version 2.43.0 (0)
 -->
<!-- Title: G Pages: 1 -->
<svg width="687pt" height="512pt"
 viewBox="0.00 0.00 687.00 512.00" xmlns="http://www.w3.org/2000/svg" xmlns:xlink="http://www.w3.org/1999/xlink">
<g id="graph0" class="graph" transform="scale(1 1) rotate(0) translate(4 508)">
<title>G</title>
<polygon fill="white" stroke="transparent" points="-4,4 -4,-508 683,-508 683,4 -4,4"/>
<!-- mulle&#45;craft -->
<g id="node1" class="node">
<title>mulle&#45;craft</title>
<polygon fill="none" stroke="black" points="180,-440.5 180,-476.5 275,-476.5 275,-440.5 180,-440.5"/>
<text text-anchor="middle" x="227.5" y="-454.8" font-family="Times,serif" font-size="14.00">mulle&#45;craft</text>
</g>
<!-- mulle&#45;dispense -->
<g id="node2" class="node">
<title>mulle&#45;dispense</title>
<polygon fill="none" stroke="black" points="369,-467.5 369,-503.5 493,-503.5 493,-467.5 369,-467.5"/>
<text text-anchor="middle" x="431" y="-481.8" font-family="Times,serif" font-size="14.00">mulle&#45;dispense</text>
</g>
<!-- mulle&#45;craft&#45;&gt;mulle&#45;dispense -->
<g id="edge1" class="edge">
<title>mulle&#45;craft&#45;&gt;mulle&#45;dispense</title>
<path fill="none" stroke="black" d="M275.23,-464.76C300.09,-468.09 331.16,-472.26 358.93,-475.98"/>
<polygon fill="black" stroke="black" points="358.62,-479.47 369,-477.33 359.55,-472.53 358.62,-479.47"/>
<text text-anchor="middle" x="332.5" y="-477.3" font-family="Times,serif" font-size="14.00"> runs</text>
</g>
<!-- mulle&#45;make -->
<g id="node3" class="node">
<title>mulle&#45;make</title>
<polygon fill="none" stroke="black" points="381.5,-412.5 381.5,-448.5 480.5,-448.5 480.5,-412.5 381.5,-412.5"/>
<text text-anchor="middle" x="431" y="-426.8" font-family="Times,serif" font-size="14.00">mulle&#45;make</text>
</g>
<!-- mulle&#45;craft&#45;&gt;mulle&#45;make -->
<g id="edge2" class="edge">
<title>mulle&#45;craft&#45;&gt;mulle&#45;make</title>
<path fill="none" stroke="black" d="M275.23,-452.01C303.85,-448.03 340.73,-442.9 371.31,-438.66"/>
<polygon fill="black" stroke="black" points="371.99,-442.09 381.42,-437.25 371.03,-435.16 371.99,-442.09"/>
<text text-anchor="middle" x="332.5" y="-449.3" font-family="Times,serif" font-size="14.00"> runs</text>
</g>
<!-- mulle&#45;fetch -->
<g id="node4" class="node">
<title>mulle&#45;fetch</title>
<polygon fill="none" stroke="black" points="382.5,-110.5 382.5,-146.5 479.5,-146.5 479.5,-110.5 382.5,-110.5"/>
<text text-anchor="middle" x="431" y="-124.8" font-family="Times,serif" font-size="14.00">mulle&#45;fetch</text>
</g>
<!-- mulle&#45;domain -->
<g id="node5" class="node">
<title>mulle&#45;domain</title>
<polygon fill="none" stroke="black" points="566,-138.5 566,-174.5 679,-174.5 679,-138.5 566,-138.5"/>
<text text-anchor="middle" x="622.5" y="-152.8" font-family="Times,serif" font-size="14.00">mulle&#45;domain</text>
</g>
<!-- mulle&#45;fetch&#45;&gt;mulle&#45;domain -->
<g id="edge3" class="edge">
<title>mulle&#45;fetch&#45;&gt;mulle&#45;domain</title>
<path fill="none" stroke="black" d="M479.82,-135.57C502.85,-138.97 530.83,-143.1 555.82,-146.8"/>
<polygon fill="black" stroke="black" points="555.56,-150.29 565.96,-148.29 556.58,-143.37 555.56,-150.29"/>
<text text-anchor="middle" x="529.5" y="-148.3" font-family="Times,serif" font-size="14.00"> runs</text>
</g>
<!-- mulle&#45;semver -->
<g id="node6" class="node">
<title>mulle&#45;semver</title>
<polygon fill="none" stroke="black" points="566,-83.5 566,-119.5 679,-119.5 679,-83.5 566,-83.5"/>
<text text-anchor="middle" x="622.5" y="-97.8" font-family="Times,serif" font-size="14.00">mulle&#45;semver</text>
</g>
<!-- mulle&#45;fetch&#45;&gt;mulle&#45;semver -->
<g id="edge4" class="edge">
<title>mulle&#45;fetch&#45;&gt;mulle&#45;semver</title>
<path fill="none" stroke="black" d="M479.82,-121.69C502.85,-118.41 530.83,-114.42 555.82,-110.86"/>
<polygon fill="black" stroke="black" points="556.56,-114.29 565.96,-109.41 555.57,-107.36 556.56,-114.29"/>
<text text-anchor="middle" x="529.5" y="-121.3" font-family="Times,serif" font-size="14.00"> runs</text>
</g>
<!-- mulle&#45;sde -->
<g id="node7" class="node">
<title>mulle&#45;sde</title>
<polygon fill="none" stroke="dodgerblue" stroke-width="2" points="0,-220.5 0,-256.5 86,-256.5 86,-220.5 0,-220.5"/>
<text text-anchor="middle" x="43" y="-234.8" font-family="Times,serif" font-size="14.00" fill="dodgerblue">mulle&#45;sde</text>
</g>
<!-- mulle&#45;sde&#45;&gt;mulle&#45;craft -->
<g id="edge5" class="edge">
<title>mulle&#45;sde&#45;&gt;mulle&#45;craft</title>
<path fill="none" stroke="black" d="M48.63,-256.8C56.56,-285.69 74.76,-342.78 104,-383.5 122.93,-409.85 131.32,-414.57 159,-431.5 162.63,-433.72 166.48,-435.83 170.43,-437.81"/>
<polygon fill="black" stroke="black" points="169.21,-441.11 179.75,-442.2 172.19,-434.77 169.21,-441.11"/>
<text text-anchor="middle" x="122.5" y="-423.3" font-family="Times,serif" font-size="14.00"> runs</text>
</g>
<!-- mulle&#45;env -->
<g id="node8" class="node">
<title>mulle&#45;env</title>
<polygon fill="none" stroke="black" points="184.5,-385.5 184.5,-421.5 270.5,-421.5 270.5,-385.5 184.5,-385.5"/>
<text text-anchor="middle" x="227.5" y="-399.8" font-family="Times,serif" font-size="14.00">mulle&#45;env</text>
</g>
<!-- mulle&#45;sde&#45;&gt;mulle&#45;env -->
<g id="edge6" class="edge">
<title>mulle&#45;sde&#45;&gt;mulle&#45;env</title>
<path fill="none" stroke="black" d="M53.63,-256.54C64.45,-275.94 83.24,-307.11 104,-330.5 125.16,-354.33 131.64,-360.16 159,-376.5 164.07,-379.53 169.54,-382.35 175.09,-384.94"/>
<polygon fill="black" stroke="black" points="173.9,-388.24 184.46,-389.08 176.73,-381.84 173.9,-388.24"/>
<text text-anchor="middle" x="122.5" y="-368.3" font-family="Times,serif" font-size="14.00"> runs</text>
</g>
<!-- mulle&#45;match -->
<g id="node9" class="node">
<title>mulle&#45;match</title>
<polygon fill="none" stroke="black" points="175,-330.5 175,-366.5 280,-366.5 280,-330.5 175,-330.5"/>
<text text-anchor="middle" x="227.5" y="-344.8" font-family="Times,serif" font-size="14.00">mulle&#45;match</text>
</g>
<!-- mulle&#45;sde&#45;&gt;mulle&#45;match -->
<g id="edge7" class="edge">
<title>mulle&#45;sde&#45;&gt;mulle&#45;match</title>
<path fill="none" stroke="black" d="M64.85,-256.66C76.15,-266.21 90.53,-277.9 104,-287.5 127.4,-304.18 133.34,-308.56 159,-321.5 162.29,-323.16 165.71,-324.79 169.19,-326.38"/>
<polygon fill="black" stroke="black" points="167.91,-329.65 178.47,-330.48 170.74,-323.24 167.91,-329.65"/>
<text text-anchor="middle" x="122.5" y="-315.3" font-family="Times,serif" font-size="14.00"> runs</text>
</g>
<!-- mulle&#45;menu -->
<g id="node10" class="node">
<title>mulle&#45;menu</title>
<polygon fill="none" stroke="black" points="177,-275.5 177,-311.5 278,-311.5 278,-275.5 177,-275.5"/>
<text text-anchor="middle" x="227.5" y="-289.8" font-family="Times,serif" font-size="14.00">mulle&#45;menu</text>
</g>
<!-- mulle&#45;sde&#45;&gt;mulle&#45;menu -->
<g id="edge8" class="edge">
<title>mulle&#45;sde&#45;&gt;mulle&#45;menu</title>
<path fill="none" stroke="black" d="M86.25,-252C92.2,-253.87 98.25,-255.75 104,-257.5 124.59,-263.78 147.18,-270.48 167.3,-276.37"/>
<polygon fill="black" stroke="black" points="166.38,-279.75 176.96,-279.2 168.34,-273.03 166.38,-279.75"/>
<text text-anchor="middle" x="122.5" y="-272.3" font-family="Times,serif" font-size="14.00"> runs</text>
</g>
<!-- mulle&#45;monitor -->
<g id="node11" class="node">
<title>mulle&#45;monitor</title>
<polygon fill="none" stroke="black" points="169,-220.5 169,-256.5 286,-256.5 286,-220.5 169,-220.5"/>
<text text-anchor="middle" x="227.5" y="-234.8" font-family="Times,serif" font-size="14.00">mulle&#45;monitor</text>
</g>
<!-- mulle&#45;sde&#45;&gt;mulle&#45;monitor -->
<g id="edge9" class="edge">
<title>mulle&#45;sde&#45;&gt;mulle&#45;monitor</title>
<path fill="none" stroke="black" d="M86.33,-238.5C107.8,-238.5 134.39,-238.5 158.63,-238.5"/>
<polygon fill="black" stroke="black" points="158.85,-242 168.85,-238.5 158.85,-235 158.85,-242"/>
<text text-anchor="middle" x="122.5" y="-242.3" font-family="Times,serif" font-size="14.00"> runs</text>
</g>
<!-- mulle&#45;platform -->
<g id="node12" class="node">
<title>mulle&#45;platform</title>
<polygon fill="none" stroke="black" points="166.5,-165.5 166.5,-201.5 288.5,-201.5 288.5,-165.5 166.5,-165.5"/>
<text text-anchor="middle" x="227.5" y="-179.8" font-family="Times,serif" font-size="14.00">mulle&#45;platform</text>
</g>
<!-- mulle&#45;sde&#45;&gt;mulle&#45;platform -->
<g id="edge10" class="edge">
<title>mulle&#45;sde&#45;&gt;mulle&#45;platform</title>
<path fill="none" stroke="black" d="M86.25,-225C92.2,-223.13 98.25,-221.25 104,-219.5 120.93,-214.33 139.21,-208.89 156.35,-203.84"/>
<polygon fill="black" stroke="black" points="157.69,-207.1 166.3,-200.92 155.72,-200.38 157.69,-207.1"/>
<text text-anchor="middle" x="122.5" y="-223.3" font-family="Times,serif" font-size="14.00"> runs</text>
</g>
<!-- mulle&#45;sourcetree -->
<g id="node13" class="node">
<title>mulle&#45;sourcetree</title>
<polygon fill="none" stroke="black" points="159,-110.5 159,-146.5 296,-146.5 296,-110.5 159,-110.5"/>
<text text-anchor="middle" x="227.5" y="-124.8" font-family="Times,serif" font-size="14.00">mulle&#45;sourcetree</text>
</g>
<!-- mulle&#45;sde&#45;&gt;mulle&#45;sourcetree -->
<g id="edge11" class="edge">
<title>mulle&#45;sde&#45;&gt;mulle&#45;sourcetree</title>
<path fill="none" stroke="black" d="M63.88,-220.49C75.25,-210.56 90,-198.3 104,-188.5 127.17,-172.28 133.66,-169.06 159,-156.5 163.01,-154.51 167.19,-152.54 171.43,-150.62"/>
<polygon fill="black" stroke="black" points="173.01,-153.75 180.74,-146.51 170.18,-147.35 173.01,-153.75"/>
<text text-anchor="middle" x="122.5" y="-192.3" font-family="Times,serif" font-size="14.00"> runs</text>
</g>
<!-- mulle&#45;template -->
<g id="node14" class="node">
<title>mulle&#45;template</title>
<polygon fill="none" stroke="black" points="165,-55.5 165,-91.5 290,-91.5 290,-55.5 165,-55.5"/>
<text text-anchor="middle" x="227.5" y="-69.8" font-family="Times,serif" font-size="14.00">mulle&#45;template</text>
</g>
<!-- mulle&#45;sde&#45;&gt;mulle&#45;template -->
<g id="edge12" class="edge">
<title>mulle&#45;sde&#45;&gt;mulle&#45;template</title>
<path fill="none" stroke="black" d="M53.63,-220.46C64.45,-201.06 83.24,-169.89 104,-146.5 125.16,-122.67 131.64,-116.84 159,-100.5 161.62,-98.93 164.36,-97.42 167.15,-95.97"/>
<polygon fill="black" stroke="black" points="168.79,-99.06 176.24,-91.53 165.72,-92.77 168.79,-99.06"/>
<text text-anchor="middle" x="122.5" y="-150.3" font-family="Times,serif" font-size="14.00"> runs</text>
</g>
<!-- mulle&#45;test -->
<g id="node15" class="node">
<title>mulle&#45;test</title>
<polygon fill="none" stroke="black" points="183,-0.5 183,-36.5 272,-36.5 272,-0.5 183,-0.5"/>
<text text-anchor="middle" x="227.5" y="-14.8" font-family="Times,serif" font-size="14.00">mulle&#45;test</text>
</g>
<!-- mulle&#45;sde&#45;&gt;mulle&#45;test -->
<g id="edge13" class="edge">
<title>mulle&#45;sde&#45;&gt;mulle&#45;test</title>
<path fill="none" stroke="black" d="M48.63,-220.2C56.56,-191.31 74.76,-134.22 104,-93.5 122.93,-67.15 131.32,-62.43 159,-45.5 163.64,-42.66 168.64,-40.01 173.73,-37.57"/>
<polygon fill="black" stroke="black" points="175.29,-40.71 182.96,-33.4 172.41,-34.33 175.29,-40.71"/>
<text text-anchor="middle" x="122.5" y="-97.3" font-family="Times,serif" font-size="14.00"> runs</text>
</g>
<!-- mulle&#45;sourcetree&#45;&gt;mulle&#45;fetch -->
<g id="edge14" class="edge">
<title>mulle&#45;sourcetree&#45;&gt;mulle&#45;fetch</title>
<path fill="none" stroke="black" d="M296.16,-128.5C320.76,-128.5 348.32,-128.5 372.01,-128.5"/>
<polygon fill="black" stroke="black" points="372.25,-132 382.25,-128.5 372.25,-125 372.25,-132"/>
<text text-anchor="middle" x="332.5" y="-132.3" font-family="Times,serif" font-size="14.00"> runs</text>
</g>
</g>
</svg>
