<svg xmlns="http://www.w3.org/2000/svg" xmlns:xlink="http://www.w3.org/1999/xlink" width="601pt" height="350pt" viewBox="0 0 601.17 350"><g id="graph0" class="graph" transform="scale(1 1) rotate(0) translate(4 346)"><title>G</title><polygon fill="#fff" stroke="transparent" points="-4 4 -4 -346 597.17 -346 597.17 4 -4 4"/><g id="node1" class="node"><title>mulle-sde monitor</title><text x="368.67" y="-320.3" fill="#00f" font-family="monospace" font-size="14" text-anchor="middle">mulle-sde monitor</text></g><g id="node2" class="node"><title>src</title><polygon fill="none" stroke="#000" points="513.67 -255 510.67 -259 489.67 -259 486.67 -255 459.67 -255 459.67 -219 513.67 -219 513.67 -255"/><text x="486.67" y="-233.3" font-family="Times,serif" font-size="14" text-anchor="middle">src</text></g><g id="edge8" class="edge"><title>mulle-sde monitor-&gt;src</title><path fill="none" stroke="#000" stroke-dasharray="1 5" d="M412.63,-305.82C422.96,-300.82 433.59,-294.84 442.67,-288 451.91,-281.04 460.65,-271.89 467.87,-263.32"/><polygon fill="#000" stroke="#000" points="470.73 -265.34 474.29 -255.37 465.28 -260.95 470.73 -265.34"/><text x="488.17" y="-276.8" font-family="Times,serif" font-size="14" text-anchor="middle">observe</text></g><g id="node7" class="node"><title>config</title><polygon fill="none" stroke="#000" points="467.17 -36 414.17 -36 414.17 0 473.17 0 473.17 -30 467.17 -36"/><polyline fill="none" stroke="#000" points="467.17 -36 467.17 -30"/><polyline fill="none" stroke="#000" points="473.17 -30 467.17 -30"/><text x="443.67" y="-14.3" font-family="Times,serif" font-size="14" text-anchor="middle">config</text></g><g id="edge9" class="edge"><title>mulle-sde monitor-&gt;config</title><path fill="none" stroke="#000" stroke-dasharray="1 5" d="M391.77,-305.83C409.75,-290.33 431.67,-265.74 431.67,-238 431.67,-238 431.67,-238 431.67,-90 431.67,-75.3 434.2,-59.13 436.94,-45.94"/><polygon fill="#000" stroke="#000" points="440.38 -46.6 439.14 -36.08 433.55 -45.08 440.38 -46.6"/><text x="460.17" y="-160.3" font-family="Times,serif" font-size="14" text-anchor="middle">observe</text></g><g id="node8" class="node"><title>filesystem</title><polygon fill="none" stroke="#fa8231" points="94.67 -255 -.17 -237 94.67 -219 189.52 -237 94.67 -255"/><text x="94.67" y="-233.3" fill="#fa8231" font-family="Times,serif" font-size="14" text-anchor="middle">&quot;filesystem&quot;</text></g><g id="edge6" class="edge"><title>mulle-sde monitor-&gt;filesystem</title><path fill="none" stroke="#000" stroke-dasharray="1 5" d="M313.55,-305.9C262.05,-289.92 186.17,-266.38 138.62,-251.63"/><polygon fill="#000" stroke="#000" points="139.52 -248.25 128.93 -248.63 137.44 -254.93 139.52 -248.25"/><text x="277.67" y="-276.8" font-family="Times,serif" font-size="14" text-anchor="middle">callback</text></g><g id="node9" class="node"><title>sourcetree</title><polygon fill="none" stroke="#fa8231" points="305.67 -255 207.47 -237 305.67 -219 403.87 -237 305.67 -255"/><text x="305.67" y="-233.3" fill="#fa8231" font-family="Times,serif" font-size="14" text-anchor="middle">&quot;sourcetree&quot;</text></g><g id="edge7" class="edge"><title>mulle-sde monitor-&gt;sourcetree</title><path fill="none" stroke="#000" stroke-dasharray="1 5" d="M355.92,-305.8C346.46,-293.02 333.43,-275.45 323.02,-261.4"/><polygon fill="#000" stroke="#000" points="325.69 -259.13 316.92 -253.18 320.07 -263.3 325.69 -259.13"/><text x="370.67" y="-276.8" font-family="Times,serif" font-size="14" text-anchor="middle">callback</text></g><g id="node3" class="node"><title>.mulle</title><polygon fill="none" stroke="gray" points="593.17 -255 590.17 -259 569.17 -259 566.17 -255 532.17 -255 532.17 -219 593.17 -219 593.17 -255"/><text x="562.67" y="-233.3" fill="gray" font-family="Times,serif" font-size="14" text-anchor="middle">.mulle</text></g><g id="node5" class="node"><title>etc</title><polygon fill="none" stroke="gray" points="574.67 -182 571.67 -186 550.67 -186 547.67 -182 520.67 -182 520.67 -146 574.67 -146 574.67 -182"/><text x="547.67" y="-160.3" fill="gray" font-family="Times,serif" font-size="14" text-anchor="middle">etc</text></g><g id="edge3" class="edge"><title>.mulle-&gt;etc</title><path fill="none" stroke="gray" d="M559.04,-218.81C556.68,-207.65 553.62,-193.16 551.27,-182.03"/></g><g id="node4" class="node"><title>project</title><polygon fill="none" stroke="gray" points="582.17 -342 579.17 -346 558.17 -346 555.17 -342 515.17 -342 515.17 -306 582.17 -306 582.17 -342"/><text x="548.67" y="-320.3" fill="gray" font-family="Times,serif" font-size="14" text-anchor="middle">project</text></g><g id="edge1" class="edge"><title>project-&gt;src</title><path fill="none" stroke="gray" d="M541.28,-305.54C536.65,-295.55 530.15,-283.05 522.67,-273 517.99,-266.71 512.15,-260.51 506.55,-255.12"/></g><g id="edge2" class="edge"><title>project-&gt;.mulle</title><path fill="none" stroke="gray" d="M551.51,-305.8C553.94,-291.05 557.42,-269.92 559.84,-255.18"/></g><g id="node6" class="node"><title>sourcetree f</title><polygon fill="none" stroke="gray" points="566.17 -109 563.17 -113 542.17 -113 539.17 -109 473.17 -109 473.17 -73 566.17 -73 566.17 -109"/><text x="519.67" y="-87.3" fill="gray" font-family="Times,serif" font-size="14" text-anchor="middle">sourcetree</text></g><g id="edge4" class="edge"><title>etc-&gt;sourcetree f</title><path fill="none" stroke="gray" d="M540.9,-145.81C536.49,-134.65 530.78,-120.16 526.39,-109.03"/></g><g id="edge5" class="edge"><title>sourcetree f-&gt;config</title><path fill="none" stroke="#000" d="M501.28,-72.81C489.33,-61.65 473.82,-47.16 461.9,-36.03"/></g></g></svg>