<svg xmlns="http://www.w3.org/2000/svg" xmlns:xlink="http://www.w3.org/1999/xlink" width="480" height="404pt" viewBox="0 0 360 404"><g id="graph0" class="graph" transform="scale(1 1) rotate(0) translate(4 400)"><title>G</title><polygon fill="#fff" stroke="transparent" points="-4 4 -4 -400 356 -400 356 4 -4 4"/><g id="node1" class="node"><title>project</title><polygon fill="none" stroke="#000" points="191.5 -396 188.5 -400 167.5 -400 164.5 -396 124.5 -396 124.5 -360 191.5 -360 191.5 -396"/><text x="158" y="-374.3" font-family="Times,serif" font-size="14" text-anchor="middle">project</text></g><g id="node2" class="node"><title>.mulle</title><polygon fill="none" stroke="#000" points="150.5 -324 147.5 -328 126.5 -328 123.5 -324 89.5 -324 89.5 -288 150.5 -288 150.5 -324"/><text x="120" y="-302.3" font-family="Times,serif" font-size="14" text-anchor="middle">.mulle</text></g><g id="edge1" class="edge"><title>project-&gt;.mulle</title><path fill="none" stroke="#000" d="M148.61,-359.7C144.24,-351.64 138.94,-341.89 134.1,-332.98"/><polygon fill="#000" stroke="#000" points="137.13 -331.22 129.29 -324.1 130.98 -334.56 137.13 -331.22"/></g><g id="node3" class="node"><title>src</title><polygon fill="none" stroke="#000" points="225 -324 222 -328 201 -328 198 -324 171 -324 171 -288 225 -288 225 -324"/><text x="198" y="-302.3" font-family="Times,serif" font-size="14" text-anchor="middle">src</text></g><g id="edge2" class="edge"><title>project-&gt;src</title><path fill="none" stroke="#000" d="M167.89,-359.7C172.49,-351.64 178.06,-341.89 183.15,-332.98"/><polygon fill="#000" stroke="#000" points="186.3 -334.52 188.23 -324.1 180.23 -331.05 186.3 -334.52"/></g><g id="node8" class="node"><title>share</title><polygon fill="none" stroke="#000" points="143 -252 140 -256 119 -256 116 -252 87 -252 87 -216 143 -216 143 -252"/><text x="115" y="-230.3" font-family="Times,serif" font-size="14" text-anchor="middle">share</text></g><g id="edge3" class="edge"><title>.mulle-&gt;share</title><path fill="none" stroke="#000" d="M118.76,-287.7C118.21,-279.98 117.55,-270.71 116.94,-262.11"/><polygon fill="#000" stroke="#000" points="120.43 -261.83 116.22 -252.1 113.44 -262.33 120.43 -261.83"/></g><g id="node11" class="node"><title>demo.txt</title><polygon fill="none" stroke="#3867d6" points="235 -252 161 -252 161 -216 241 -216 241 -246 235 -252"/><polyline fill="none" stroke="#3867d6" points="235 -252 235 -246"/><polyline fill="none" stroke="#3867d6" points="241 -246 235 -246"/><text x="201" y="-230.3" fill="#3867d6" font-family="Times,serif" font-size="14" text-anchor="middle">demo.txt</text></g><g id="edge10" class="edge"><title>src-&gt;demo.txt</title><path fill="none" stroke="#000" d="M198.74,-287.7C199.07,-279.98 199.47,-270.71 199.84,-262.11"/><polygon fill="#000" stroke="#000" points="203.34 -262.25 200.27 -252.1 196.34 -261.95 203.34 -262.25"/></g><g id="node4" class="node"><title>match</title><polygon fill="none" stroke="#000" points="103.5 -180 100.5 -184 79.5 -184 76.5 -180 42.5 -180 42.5 -144 103.5 -144 103.5 -180"/><text x="73" y="-158.3" font-family="Times,serif" font-size="14" text-anchor="middle">match</text></g><g id="node12" class="node"><title>match.d</title><polygon fill="none" stroke="#000" points="93 -108 90 -112 69 -112 66 -108 19 -108 19 -72 93 -72 93 -108"/><text x="56" y="-86.3" font-family="Times,serif" font-size="14" text-anchor="middle">match.d</text></g><g id="edge11" class="edge"><title>match-&gt;match.d</title><path fill="none" stroke="#000" d="M68.8,-143.7C66.9,-135.9 64.62,-126.51 62.52,-117.83"/><polygon fill="#000" stroke="#000" points="65.92 -117 60.15 -108.1 59.11 -118.65 65.92 -117"/></g><g id="node5" class="node"><title>monitor</title><polygon fill="none" stroke="#000" points="202.5 -180 199.5 -184 178.5 -184 175.5 -180 129.5 -180 129.5 -144 202.5 -144 202.5 -180"/><text x="166" y="-158.3" font-family="Times,serif" font-size="14" text-anchor="middle">monitor</text></g><g id="node6" class="node"><title>bin</title><polygon fill="none" stroke="#000" points="193 -108 190 -112 169 -112 166 -108 139 -108 139 -72 193 -72 193 -108"/><text x="166" y="-86.3" font-family="Times,serif" font-size="14" text-anchor="middle">bin</text></g><g id="edge6" class="edge"><title>monitor-&gt;bin</title><path fill="none" stroke="#000" d="M166,-143.7C166,-135.98 166,-126.71 166,-118.11"/><polygon fill="#000" stroke="#000" points="169.5 -118.1 166 -108.1 162.5 -118.1 169.5 -118.1"/></g><g id="node7" class="node"><title>libexec</title><polygon fill="none" stroke="#000" points="303.5 -108 300.5 -112 279.5 -112 276.5 -108 236.5 -108 236.5 -72 303.5 -72 303.5 -108"/><text x="270" y="-86.3" font-family="Times,serif" font-size="14" text-anchor="middle">libexec</text></g><g id="edge7" class="edge"><title>monitor-&gt;libexec</title><path fill="none" stroke="#000" d="M191.44,-143.88C204.79,-134.89 221.32,-123.76 235.78,-114.03"/><polygon fill="#000" stroke="#000" points="238.12 -116.68 244.46 -108.19 234.21 -110.87 238.12 -116.68"/></g><g id="node9" class="node"><title>text-callback</title><polygon fill="none" stroke="#fa8231" points="213.5 -36 112.5 -36 112.5 0 219.5 0 219.5 -30 213.5 -36"/><polyline fill="none" stroke="#fa8231" points="213.5 -36 213.5 -30"/><polyline fill="none" stroke="#fa8231" points="219.5 -30 213.5 -30"/><text x="166" y="-14.3" fill="#fa8231" font-family="Times,serif" font-size="14" text-anchor="middle">text-callback</text></g><g id="edge8" class="edge"><title>bin-&gt;text-callback</title><path fill="none" stroke="#000" d="M166,-71.7C166,-63.98 166,-54.71 166,-46.11"/><polygon fill="#000" stroke="#000" points="169.5 -46.1 166 -36.1 162.5 -46.1 169.5 -46.1"/></g><g id="node10" class="node"><title>aspell-task.sh</title><polygon fill="none" stroke="#8854d0" points="346 -36 238 -36 238 0 352 0 352 -30 346 -36"/><polyline fill="none" stroke="#8854d0" points="346 -36 346 -30"/><polyline fill="none" stroke="#8854d0" points="352 -30 346 -30"/><text x="295" y="-14.3" fill="#8854d0" font-family="Times,serif" font-size="14" text-anchor="middle">aspell-task.sh</text></g><g id="edge9" class="edge"><title>libexec-&gt;aspell-task.sh</title><path fill="none" stroke="#000" d="M276.18,-71.7C279,-63.81 282.39,-54.3 285.52,-45.55"/><polygon fill="#000" stroke="#000" points="288.82 -46.7 288.89 -36.1 282.23 -44.34 288.82 -46.7"/></g><g id="edge5" class="edge"><title>share-&gt;match</title><path fill="none" stroke="#000" d="M104.62,-215.7C99.74,-207.56 93.81,-197.69 88.42,-188.7"/><polygon fill="#000" stroke="#000" points="91.41 -186.88 83.26 -180.1 85.41 -190.48 91.41 -186.88"/></g><g id="edge4" class="edge"><title>share-&gt;monitor</title><path fill="none" stroke="#000" d="M127.61,-215.7C133.6,-207.47 140.88,-197.48 147.48,-188.42"/><polygon fill="#000" stroke="#000" points="150.48 -190.25 153.54 -180.1 144.82 -186.13 150.48 -190.25"/></g><g id="node13" class="node"><title>00-text--all</title><polygon fill="none" stroke="#20bf6b" points="88 -36 0 -36 0 0 94 0 94 -30 88 -36"/><polyline fill="none" stroke="#20bf6b" points="88 -36 88 -30"/><polyline fill="none" stroke="#20bf6b" points="94 -30 88 -30"/><text x="47" y="-14.3" fill="#20bf6b" font-family="Times,serif" font-size="14" text-anchor="middle">00-text--all</text></g><g id="edge12" class="edge"><title>match.d-&gt;00-text--all</title><path fill="none" stroke="#000" d="M53.78,-71.7C52.78,-63.98 51.59,-54.71 50.49,-46.11"/><polygon fill="#000" stroke="#000" points="53.95 -45.58 49.2 -36.1 47 -46.47 53.95 -45.58"/></g></g></svg>