<svg xmlns="http://www.w3.org/2000/svg" xmlns:xlink="http://www.w3.org/1999/xlink" width="364pt" height="131pt" viewBox="0 0 364.12 131"><g id="graph0" class="graph" transform="scale(1 1) rotate(0) translate(4 127)"><title>G</title><polygon fill="#fff" stroke="transparent" points="-4 4 -4 -127 360.12 -127 360.12 4 -4 4"/><g id="node1" class="node"><title>filesystem-callback</title><polygon fill="none" stroke="#fa8231" points="70.78 -36 .22 -18 70.78 0 141.33 -18 70.78 -36"/><text x="70.78" y="-14.3" fill="#fa8231" font-family="Times,serif" font-size="14" text-anchor="middle">&quot;source&quot;</text></g><g id="node2" class="node"><title>sourcetree-callback</title><polygon fill="none" stroke="#fa8231" points="257.78 -36 159.58 -18 257.78 0 355.97 -18 257.78 -36"/><text x="257.78" y="-14.3" fill="#fa8231" font-family="Times,serif" font-size="14" text-anchor="middle">&quot;sourcetree&quot;</text></g><g id="node3" class="node"><title>mulle-sde reflect</title><text x="163.78" y="-101.3" fill="#00f" font-family="monospace" font-size="14" text-anchor="middle">mulle-sde reflect</text></g><g id="edge1" class="edge"><title>mulle-sde reflect-&gt;filesystem-callback</title><path fill="none" stroke="#000" stroke-dasharray="1 5" d="M144.96,-86.8C130.04,-73.17 109.15,-54.07 93.34,-39.62"/><polygon fill="#000" stroke="#000" points="95.33 -36.7 85.59 -32.54 90.61 -41.87 95.33 -36.7"/><text x="152.78" y="-57.8" font-family="Times,serif" font-size="14" text-anchor="middle">callback</text></g><g id="edge2" class="edge"><title>mulle-sde reflect-&gt;sourcetree-callback</title><path fill="none" stroke="#000" stroke-dasharray="1 5" d="M182.8,-86.8C197.6,-73.41 218.22,-54.77 234.09,-40.42"/><polygon fill="#000" stroke="#000" points="236.83 -42.66 241.9 -33.35 232.14 -37.46 236.83 -42.66"/><text x="244.78" y="-57.8" font-family="Times,serif" font-size="14" text-anchor="middle">callback</text></g></g></svg>