<svg xmlns="http://www.w3.org/2000/svg" xmlns:xlink="http://www.w3.org/1999/xlink" width="908" height="388" viewBox="0 0 681 291"><g id="graph0" class="graph" transform="scale(1 1) rotate(0) translate(4 287)"><title>G</title><polygon fill="#fff" stroke="transparent" points="-4 4 -4 -287 677 -287 677 4 -4 4"/><g id="node1" class="node"><title>CMakeLists.txt</title><polygon fill="none" stroke="#16a085" points="379.5 -210 260.5 -210 260.5 -174 385.5 -174 385.5 -204 379.5 -210"/><polyline fill="none" stroke="#16a085" points="379.5 -210 379.5 -204"/><polyline fill="none" stroke="#16a085" points="385.5 -204 379.5 -204"/><text x="323" y="-188.3" fill="#16a085" font-family="Times,serif" font-size="14" text-anchor="middle">CMakeLists.txt</text></g><g id="node3" class="node"><title>HeadersAndSources.cmake</title><polygon fill="none" stroke="#16a085" points="297 -123 91 -123 91 -87 303 -87 303 -117 297 -123"/><polyline fill="none" stroke="#16a085" points="297 -123 297 -117"/><polyline fill="none" stroke="#16a085" points="303 -117 297 -117"/><text x="197" y="-101.3" fill="#16a085" font-family="Times,serif" font-size="14" text-anchor="middle">HeadersAndSources.cmake</text></g><g id="edge2" class="edge"><title>CMakeLists.txt-&gt;HeadersAndSources.cmake</title><path fill="none" stroke="#000" stroke-dasharray="1 5" d="M297.5,-173.8C278.29,-160.84 251.76,-142.94 230.78,-128.79"/><polygon fill="#000" stroke="#000" points="232.71 -125.87 222.46 -123.18 228.79 -131.67 232.71 -125.87"/><text x="306" y="-144.8" font-family="Times,serif" font-size="14" text-anchor="middle">include (2)</text></g><g id="node4" class="node"><title>DependenciesAndLibraries.cmake</title><polygon fill="none" stroke="#16a085" points="574.5 -123 321.5 -123 321.5 -87 580.5 -87 580.5 -117 574.5 -123"/><polyline fill="none" stroke="#16a085" points="574.5 -123 574.5 -117"/><polyline fill="none" stroke="#16a085" points="580.5 -117 574.5 -117"/><text x="451" y="-101.3" fill="#16a085" font-family="Times,serif" font-size="14" text-anchor="middle">DependenciesAndLibraries.cmake</text></g><g id="edge3" class="edge"><title>CMakeLists.txt-&gt;DependenciesAndLibraries.cmake</title><path fill="none" stroke="#000" stroke-dasharray="1 5" d="M348.9,-173.8C368.42,-160.84 395.37,-142.94 416.68,-128.79"/><polygon fill="#000" stroke="#000" points="418.74 -131.62 425.14 -123.18 414.87 -125.79 418.74 -131.62"/><text x="433" y="-144.8" font-family="Times,serif" font-size="14" text-anchor="middle">include (5)</text></g><g id="node2" class="node"><title>project</title><polygon fill="none" stroke="#7f8c8d" points="356.5 -283 353.5 -287 332.5 -287 329.5 -283 289.5 -283 289.5 -247 356.5 -247 356.5 -283"/><text x="323" y="-261.3" fill="#7f8c8d" font-family="Times,serif" font-size="14" text-anchor="middle">project</text></g><g id="edge1" class="edge"><title>project-&gt;CMakeLists.txt</title><path fill="none" stroke="#7f8c8d" d="M323,-246.81C323,-235.65 323,-221.16 323,-210.03"/></g><g id="node5" class="node"><title>_Headers.cmake</title><polygon fill="none" stroke="#9b59b6" points="128 -36 0 -36 0 0 134 0 134 -30 128 -36"/><polyline fill="none" stroke="#9b59b6" points="128 -36 128 -30"/><polyline fill="none" stroke="#9b59b6" points="134 -30 128 -30"/><text x="67" y="-14.3" fill="#9b59b6" font-family="Times,serif" font-size="14" text-anchor="middle">_Headers.cmake</text></g><g id="edge4" class="edge"><title>HeadersAndSources.cmake-&gt;_Headers.cmake</title><path fill="none" stroke="#000" stroke-dasharray="1 5" d="M158.69,-86.84C148.15,-81.58 136.89,-75.47 127,-69 115.27,-61.33 103.23,-51.7 93.04,-42.95"/><polygon fill="#000" stroke="#000" points="95.14 -40.13 85.31 -36.17 90.52 -45.39 95.14 -40.13"/><text x="165" y="-57.8" font-family="Times,serif" font-size="14" text-anchor="middle">include (3)</text></g><g id="node6" class="node"><title>_Sources.cmake</title><polygon fill="none" stroke="#9b59b6" points="277.5 -36 152.5 -36 152.5 0 283.5 0 283.5 -30 277.5 -36"/><polyline fill="none" stroke="#9b59b6" points="277.5 -36 277.5 -30"/><polyline fill="none" stroke="#9b59b6" points="283.5 -30 277.5 -30"/><text x="218" y="-14.3" fill="#9b59b6" font-family="Times,serif" font-size="14" text-anchor="middle">_Sources.cmake</text></g><g id="edge5" class="edge"><title>HeadersAndSources.cmake-&gt;_Sources.cmake</title><path fill="none" stroke="#000" stroke-dasharray="1 5" d="M201.25,-86.8C204.12,-75.16 207.98,-59.55 211.27,-46.24"/><polygon fill="#000" stroke="#000" points="214.76 -46.72 213.76 -36.18 207.96 -45.04 214.76 -46.72"/><text x="247" y="-57.8" font-family="Times,serif" font-size="14" text-anchor="middle">include (4)</text></g><g id="node7" class="node"><title>_Dependencies.cmake</title><polygon fill="none" stroke="#9b59b6" points="510.5 -36 343.5 -36 343.5 0 516.5 0 516.5 -30 510.5 -36"/><polyline fill="none" stroke="#9b59b6" points="510.5 -36 510.5 -30"/><polyline fill="none" stroke="#9b59b6" points="516.5 -30 510.5 -30"/><text x="430" y="-14.3" fill="#9b59b6" font-family="Times,serif" font-size="14" text-anchor="middle">_Dependencies.cmake</text></g><g id="edge6" class="edge"><title>DependenciesAndLibraries.cmake-&gt;_Dependencies.cmake</title><path fill="none" stroke="#000" stroke-dasharray="1 5" d="M446.75,-86.8C443.88,-75.16 440.02,-59.55 436.73,-46.24"/><polygon fill="#000" stroke="#000" points="440.04 -45.04 434.24 -36.18 433.24 -46.72 440.04 -45.04"/><text x="480" y="-57.8" font-family="Times,serif" font-size="14" text-anchor="middle">include (6)</text></g><g id="node8" class="node"><title>_Libraries.cmake</title><polygon fill="none" stroke="#9b59b6" points="667 -36 535 -36 535 0 673 0 673 -30 667 -36"/><polyline fill="none" stroke="#9b59b6" points="667 -36 667 -30"/><polyline fill="none" stroke="#9b59b6" points="673 -30 667 -30"/><text x="604" y="-14.3" fill="#9b59b6" font-family="Times,serif" font-size="14" text-anchor="middle">_Libraries.cmake</text></g><g id="edge7" class="edge"><title>DependenciesAndLibraries.cmake-&gt;_Libraries.cmake</title><path fill="none" stroke="#000" stroke-dasharray="1 5" d="M487.08,-86.99C498.37,-81.46 510.8,-75.16 522,-69 537.61,-60.42 554.47,-50.29 568.82,-41.4"/><polygon fill="#000" stroke="#000" points="570.76 -44.32 577.4 -36.05 567.06 -38.38 570.76 -44.32"/><text x="586" y="-57.8" font-family="Times,serif" font-size="14" text-anchor="middle">include (7)</text></g></g></svg>