<?xml version="1.0" encoding="UTF-8" standalone="no"?>
<!DOCTYPE svg PUBLIC "-//W3C//DTD SVG 1.1//EN"
 "http://www.w3.org/Graphics/SVG/1.1/DTD/svg11.dtd">
<!-- Generated by graphviz version 2.43.0 (0)
 -->
<!-- Title: G Pages: 1 -->
<svg width="364pt" height="131pt"
 viewBox="0.00 0.00 364.12 131.00" xmlns="http://www.w3.org/2000/svg" xmlns:xlink="http://www.w3.org/1999/xlink">
<g id="graph0" class="graph" transform="scale(1 1) rotate(0) translate(4 127)">
<title>G</title>
<polygon fill="white" stroke="transparent" points="-4,4 -4,-127 360.12,-127 360.12,4 -4,4"/>
<!-- filesystem&#45;callback -->
<g id="node1" class="node">
<title>filesystem&#45;callback</title>
<polygon fill="none" stroke="#fa8231" points="70.78,-36 0.22,-18 70.78,0 141.33,-18 70.78,-36"/>
<text text-anchor="middle" x="70.78" y="-14.3" font-family="Times,serif" font-size="14.00" fill="#fa8231">&quot;source&quot;</text>
</g>
<!-- sourcetree&#45;callback -->
<g id="node2" class="node">
<title>sourcetree&#45;callback</title>
<polygon fill="none" stroke="#fa8231" points="257.78,-36 159.58,-18 257.78,0 355.97,-18 257.78,-36"/>
<text text-anchor="middle" x="257.78" y="-14.3" font-family="Times,serif" font-size="14.00" fill="#fa8231">&quot;sourcetree&quot;</text>
</g>
<!-- mulle&#45;sde reflect -->
<g id="node3" class="node">
<title>mulle&#45;sde reflect</title>
<text text-anchor="middle" x="163.78" y="-101.3" font-family="monospace" font-size="14.00" fill="blue">mulle&#45;sde reflect</text>
</g>
<!-- mulle&#45;sde reflect&#45;&gt;filesystem&#45;callback -->
<g id="edge1" class="edge">
<title>mulle&#45;sde reflect&#45;&gt;filesystem&#45;callback</title>
<path fill="none" stroke="black" stroke-dasharray="1,5" d="M144.96,-86.8C130.04,-73.17 109.15,-54.07 93.34,-39.62"/>
<polygon fill="black" stroke="black" points="95.33,-36.7 85.59,-32.54 90.61,-41.87 95.33,-36.7"/>
<text text-anchor="middle" x="152.78" y="-57.8" font-family="Times,serif" font-size="14.00">callback</text>
</g>
<!-- mulle&#45;sde reflect&#45;&gt;sourcetree&#45;callback -->
<g id="edge2" class="edge">
<title>mulle&#45;sde reflect&#45;&gt;sourcetree&#45;callback</title>
<path fill="none" stroke="black" stroke-dasharray="1,5" d="M182.8,-86.8C197.6,-73.41 218.22,-54.77 234.09,-40.42"/>
<polygon fill="black" stroke="black" points="236.83,-42.66 241.9,-33.35 232.14,-37.46 236.83,-42.66"/>
<text text-anchor="middle" x="244.78" y="-57.8" font-family="Times,serif" font-size="14.00">callback</text>
</g>
</g>
</svg>
