<svg xmlns="http://www.w3.org/2000/svg" xmlns:xlink="http://www.w3.org/1999/xlink" width="828" height="133pt" viewBox="0 0 620.5 133"><g id="graph0" class="graph" transform="scale(1 1) rotate(0) translate(4 129)"><title>G</title><polygon fill="#fff" stroke="transparent" points="-4 4 -4 -129 616.5 -129 616.5 4 -4 4"/><g id="node1" class="node"><title>mulle-sde</title><polygon fill="none" stroke="#1e90ff" stroke-width="2" points="275 -88.5 275 -124.5 361 -124.5 361 -88.5 275 -88.5"/><text x="318" y="-102.8" fill="#1e90ff" font-family="Times,serif" font-size="14" text-anchor="middle">mulle-sde</text></g><g id="node2" class="node"><title>mulle-env</title><polygon fill="none" stroke="#000" points="0 -.5 0 -36.5 86 -36.5 86 -.5 0 -.5"/><text x="43" y="-14.8" font-family="Times,serif" font-size="14" text-anchor="middle">mulle-env</text></g><g id="edge1" class="edge"><title>mulle-sde-&gt;mulle-env</title><path fill="none" stroke="#000" stroke-dasharray="1 5" d="M274.99,-93.35C251.58,-86.65 222.14,-78.07 196,-70 153.7,-56.94 141.34,-52.43 95.71,-37.23"/><polygon fill="#000" stroke="#000" points="96.71 -33.88 86.12 -34.04 94.51 -40.52 96.71 -33.88"/><text x="214.5" y="-58.8" font-family="Times,serif" font-size="14" text-anchor="middle">runs</text></g><g id="node3" class="node"><title>mulle-sourcetree</title><polygon fill="none" stroke="#000" points="104.5 -.5 104.5 -36.5 241.5 -36.5 241.5 -.5 104.5 -.5"/><text x="173" y="-14.8" font-family="Times,serif" font-size="14" text-anchor="middle">mulle-sourcetree</text></g><g id="edge2" class="edge"><title>mulle-sde-&gt;mulle-sourcetree</title><path fill="none" stroke="#000" stroke-dasharray="1 5" d="M289.01,-88.3C266.48,-74.94 235.07,-56.31 210.61,-41.81"/><polygon fill="#000" stroke="#000" points="212.33 -38.76 201.94 -36.67 208.76 -44.78 212.33 -38.76"/><text x="273.5" y="-58.8" font-family="Times,serif" font-size="14" text-anchor="middle">runs</text></g><g id="node4" class="node"><title>mulle-monitor</title><polygon fill="none" stroke="#000" points="259.5 -.5 259.5 -36.5 376.5 -36.5 376.5 -.5 259.5 -.5"/><text x="318" y="-14.8" font-family="Times,serif" font-size="14" text-anchor="middle">mulle-monitor</text></g><g id="edge3" class="edge"><title>mulle-sde-&gt;mulle-monitor</title><path fill="none" stroke="#000" stroke-dasharray="1 5" d="M318,-88.1C318,-76.25 318,-60.32 318,-46.79"/><polygon fill="#000" stroke="#000" points="321.5 -46.58 318 -36.58 314.5 -46.58 321.5 -46.58"/><text x="336.5" y="-58.8" font-family="Times,serif" font-size="14" text-anchor="middle">runs</text></g><g id="node5" class="node"><title>mulle-craft</title><polygon fill="none" stroke="#000" points="394.5 -.5 394.5 -36.5 489.5 -36.5 489.5 -.5 394.5 -.5"/><text x="442" y="-14.8" font-family="Times,serif" font-size="14" text-anchor="middle">mulle-craft</text></g><g id="edge4" class="edge"><title>mulle-sde-&gt;mulle-craft</title><path fill="none" stroke="#000" stroke-dasharray="1 5" d="M342.8,-88.3C361.8,-75.12 388.22,-56.8 409.01,-42.38"/><polygon fill="#000" stroke="#000" points="411.03 -45.24 417.25 -36.67 407.04 -39.49 411.03 -45.24"/><text x="406.5" y="-58.8" font-family="Times,serif" font-size="14" text-anchor="middle">runs</text></g><g id="node6" class="node"><title>mulle-match</title><polygon fill="none" stroke="#000" points="507.5 -.5 507.5 -36.5 612.5 -36.5 612.5 -.5 507.5 -.5"/><text x="560" y="-14.8" font-family="Times,serif" font-size="14" text-anchor="middle">mulle-match</text></g><g id="edge5" class="edge"><title>mulle-sde-&gt;mulle-match</title><path fill="none" stroke="#000" stroke-dasharray="1 5" d="M361.16,-92.34C381.78,-85.89 406.77,-77.83 429,-70 455.27,-60.75 484.18,-49.69 508.15,-40.29"/><polygon fill="#000" stroke="#000" points="509.73 -43.43 517.75 -36.51 507.17 -36.91 509.73 -43.43"/><text x="487.5" y="-58.8" font-family="Times,serif" font-size="14" text-anchor="middle">runs</text></g></g></svg>