<?xml version="1.0" encoding="UTF-8" standalone="no"?>
<!DOCTYPE svg PUBLIC "-//W3C//DTD SVG 1.1//EN"
 "http://www.w3.org/Graphics/SVG/1.1/DTD/svg11.dtd">
<!-- Generated by graphviz version 2.43.0 (0)
 -->
<!-- Title: G Pages: 1 -->
<svg width="621pt" height="133pt"
 viewBox="0.00 0.00 620.50 133.00" xmlns="http://www.w3.org/2000/svg" xmlns:xlink="http://www.w3.org/1999/xlink">
<g id="graph0" class="graph" transform="scale(1 1) rotate(0) translate(4 129)">
<title>G</title>
<polygon fill="white" stroke="transparent" points="-4,4 -4,-129 616.5,-129 616.5,4 -4,4"/>
<!-- mulle&#45;sde -->
<g id="node1" class="node">
<title>mulle&#45;sde</title>
<polygon fill="none" stroke="dodgerblue" stroke-width="2" points="275,-88.5 275,-124.5 361,-124.5 361,-88.5 275,-88.5"/>
<text text-anchor="middle" x="318" y="-102.8" font-family="Times,serif" font-size="14.00" fill="dodgerblue">mulle&#45;sde</text>
</g>
<!-- mulle&#45;env -->
<g id="node2" class="node">
<title>mulle&#45;env</title>
<polygon fill="none" stroke="black" points="0,-0.5 0,-36.5 86,-36.5 86,-0.5 0,-0.5"/>
<text text-anchor="middle" x="43" y="-14.8" font-family="Times,serif" font-size="14.00">mulle&#45;env</text>
</g>
<!-- mulle&#45;sde&#45;&gt;mulle&#45;env -->
<g id="edge1" class="edge">
<title>mulle&#45;sde&#45;&gt;mulle&#45;env</title>
<path fill="none" stroke="black" stroke-dasharray="1,5" d="M274.99,-93.35C251.58,-86.65 222.14,-78.07 196,-70 153.7,-56.94 141.34,-52.43 95.71,-37.23"/>
<polygon fill="black" stroke="black" points="96.71,-33.88 86.12,-34.04 94.51,-40.52 96.71,-33.88"/>
<text text-anchor="middle" x="214.5" y="-58.8" font-family="Times,serif" font-size="14.00"> runs</text>
</g>
<!-- mulle&#45;sourcetree -->
<g id="node3" class="node">
<title>mulle&#45;sourcetree</title>
<polygon fill="none" stroke="black" points="104.5,-0.5 104.5,-36.5 241.5,-36.5 241.5,-0.5 104.5,-0.5"/>
<text text-anchor="middle" x="173" y="-14.8" font-family="Times,serif" font-size="14.00">mulle&#45;sourcetree</text>
</g>
<!-- mulle&#45;sde&#45;&gt;mulle&#45;sourcetree -->
<g id="edge2" class="edge">
<title>mulle&#45;sde&#45;&gt;mulle&#45;sourcetree</title>
<path fill="none" stroke="black" stroke-dasharray="1,5" d="M289.01,-88.3C266.48,-74.94 235.07,-56.31 210.61,-41.81"/>
<polygon fill="black" stroke="black" points="212.33,-38.76 201.94,-36.67 208.76,-44.78 212.33,-38.76"/>
<text text-anchor="middle" x="273.5" y="-58.8" font-family="Times,serif" font-size="14.00"> runs</text>
</g>
<!-- mulle&#45;monitor -->
<g id="node4" class="node">
<title>mulle&#45;monitor</title>
<polygon fill="none" stroke="black" points="259.5,-0.5 259.5,-36.5 376.5,-36.5 376.5,-0.5 259.5,-0.5"/>
<text text-anchor="middle" x="318" y="-14.8" font-family="Times,serif" font-size="14.00">mulle&#45;monitor</text>
</g>
<!-- mulle&#45;sde&#45;&gt;mulle&#45;monitor -->
<g id="edge3" class="edge">
<title>mulle&#45;sde&#45;&gt;mulle&#45;monitor</title>
<path fill="none" stroke="black" stroke-dasharray="1,5" d="M318,-88.1C318,-76.25 318,-60.32 318,-46.79"/>
<polygon fill="black" stroke="black" points="321.5,-46.58 318,-36.58 314.5,-46.58 321.5,-46.58"/>
<text text-anchor="middle" x="336.5" y="-58.8" font-family="Times,serif" font-size="14.00"> runs</text>
</g>
<!-- mulle&#45;craft -->
<g id="node5" class="node">
<title>mulle&#45;craft</title>
<polygon fill="none" stroke="black" points="394.5,-0.5 394.5,-36.5 489.5,-36.5 489.5,-0.5 394.5,-0.5"/>
<text text-anchor="middle" x="442" y="-14.8" font-family="Times,serif" font-size="14.00">mulle&#45;craft</text>
</g>
<!-- mulle&#45;sde&#45;&gt;mulle&#45;craft -->
<g id="edge4" class="edge">
<title>mulle&#45;sde&#45;&gt;mulle&#45;craft</title>
<path fill="none" stroke="black" stroke-dasharray="1,5" d="M342.8,-88.3C361.8,-75.12 388.22,-56.8 409.01,-42.38"/>
<polygon fill="black" stroke="black" points="411.03,-45.24 417.25,-36.67 407.04,-39.49 411.03,-45.24"/>
<text text-anchor="middle" x="406.5" y="-58.8" font-family="Times,serif" font-size="14.00"> runs</text>
</g>
<!-- mulle&#45;match -->
<g id="node6" class="node">
<title>mulle&#45;match</title>
<polygon fill="none" stroke="black" points="507.5,-0.5 507.5,-36.5 612.5,-36.5 612.5,-0.5 507.5,-0.5"/>
<text text-anchor="middle" x="560" y="-14.8" font-family="Times,serif" font-size="14.00">mulle&#45;match</text>
</g>
<!-- mulle&#45;sde&#45;&gt;mulle&#45;match -->
<g id="edge5" class="edge">
<title>mulle&#45;sde&#45;&gt;mulle&#45;match</title>
<path fill="none" stroke="black" stroke-dasharray="1,5" d="M361.16,-92.34C381.78,-85.89 406.77,-77.83 429,-70 455.27,-60.75 484.18,-49.69 508.15,-40.29"/>
<polygon fill="black" stroke="black" points="509.73,-43.43 517.75,-36.51 507.17,-36.91 509.73,-43.43"/>
<text text-anchor="middle" x="487.5" y="-58.8" font-family="Times,serif" font-size="14.00"> runs</text>
</g>
</g>
</svg>
