<svg xmlns="http://www.w3.org/2000/svg" xmlns:xlink="http://www.w3.org/1999/xlink" width="746pt" height="305pt" viewBox="0 0 746 305"><g id="graph0" class="graph" transform="scale(1 1) rotate(0) translate(4 301)"><title>y</title><polygon fill="#fff" stroke="transparent" points="-4 4 -4 -301 742 -301 742 4 -4 4"/><g id="node1" class="node"><title>mulle-sde</title><polygon fill="none" stroke="#00f" stroke-width="3" points="420 -297 334 -297 334 -261 420 -261 420 -297"/><text x="377" y="-275.3" fill="#00f" font-family="Times,serif" font-size="14" text-anchor="middle">mulle-sde</text></g><g id="node2" class="node"><title>mulle-monitor</title><polygon fill="none" stroke="#f0f" stroke-width="2" points="435.5 -210 318.5 -210 318.5 -174 435.5 -174 435.5 -210"/><text x="377" y="-188.3" fill="#f0f" font-family="Times,serif" font-size="14" text-anchor="middle">mulle-monitor</text></g><g id="edge1" class="edge"><title>mulle-sde-&gt;mulle-monitor</title><path fill="none" stroke="#000" d="M377,-260.8C377,-249.16 377,-233.55 377,-220.24"/><polygon fill="#000" stroke="#000" points="380.5 -220.18 377 -210.18 373.5 -220.18 380.5 -220.18"/><text x="411" y="-231.8" font-family="Times,serif" font-size="14" text-anchor="middle">executes</text></g><g id="node3" class="node"><title>mulle-sourcetree-to-cmake</title><polygon fill="none" stroke="#fa8231" stroke-width="2" points="206 -123 0 -123 0 -87 206 -87 206 -123"/><text x="103" y="-101.3" fill="#fa8231" font-family="Times,serif" font-size="14" text-anchor="middle">mulle-sourcetree-to-cmake</text></g><g id="edge2" class="edge"><title>mulle-monitor-&gt;mulle-sourcetree-to-cmake</title><path fill="none" stroke="#000" d="M321.88,-173.9C277.38,-160.1 214.68,-140.65 167.79,-126.1"/><polygon fill="#000" stroke="#000" points="168.62 -122.69 158.03 -123.07 166.54 -129.38 168.62 -122.69"/><text x="291" y="-144.8" font-family="Times,serif" font-size="14" text-anchor="middle">executes</text></g><g id="node4" class="node"><title>mulle-sourcetree-to-c</title><polygon fill="none" stroke="#fa8231" stroke-width="2" points="392 -123 224 -123 224 -87 392 -87 392 -123"/><text x="308" y="-101.3" fill="#fa8231" font-family="Times,serif" font-size="14" text-anchor="middle">mulle-sourcetree-to-c</text></g><g id="edge3" class="edge"><title>mulle-monitor-&gt;mulle-sourcetree-to-c</title><path fill="none" stroke="#000" d="M363.04,-173.8C353.12,-161.59 339.65,-144.99 328.52,-131.28"/><polygon fill="#000" stroke="#000" points="330.96 -128.73 321.94 -123.18 325.53 -133.15 330.96 -128.73"/><text x="381" y="-144.8" font-family="Times,serif" font-size="14" text-anchor="middle">executes</text></g><g id="node5" class="node"><title>mulle-match-to-cmake</title><polygon fill="none" stroke="#fa8231" stroke-width="2" points="584 -123 410 -123 410 -87 584 -87 584 -123"/><text x="497" y="-101.3" fill="#fa8231" font-family="Times,serif" font-size="14" text-anchor="middle">mulle-match-to-cmake</text></g><g id="edge4" class="edge"><title>mulle-monitor-&gt;mulle-match-to-cmake</title><path fill="none" stroke="#000" d="M401.28,-173.8C419.5,-160.9 444.62,-143.1 464.56,-128.98"/><polygon fill="#000" stroke="#000" points="466.62 -131.81 472.75 -123.18 462.57 -126.1 466.62 -131.81"/><text x="479" y="-144.8" font-family="Times,serif" font-size="14" text-anchor="middle">executes</text></g><g id="node6" class="node"><title>mulle-match-to-c</title><polygon fill="none" stroke="#fa8231" stroke-width="2" points="738 -123 602 -123 602 -87 738 -87 738 -123"/><text x="670" y="-101.3" fill="#fa8231" font-family="Times,serif" font-size="14" text-anchor="middle">mulle-match-to-c</text></g><g id="edge5" class="edge"><title>mulle-monitor-&gt;mulle-match-to-c</title><path fill="none" stroke="#000" d="M435.83,-177.28C460.95,-171.16 490.52,-163.63 517,-156 548.23,-147.01 582.66,-135.87 610.93,-126.39"/><polygon fill="#000" stroke="#000" points="612.3 -129.62 620.66 -123.11 610.07 -122.98 612.3 -129.62"/><text x="597" y="-144.8" font-family="Times,serif" font-size="14" text-anchor="middle">executes</text></g><g id="node7" class="node"><title>.mulle/etc/sourcetree/config</title><polygon fill="brown" stroke="orange" points="236.5 -36 27.5 -36 27.5 0 242.5 0 242.5 -30 236.5 -36"/><polyline fill="none" stroke="orange" points="236.5 -36 236.5 -30"/><polyline fill="none" stroke="orange" points="242.5 -30 236.5 -30"/><text x="135" y="-14.3" fill="#fff" font-family="Times,serif" font-size="14" text-anchor="middle">.mulle/etc/sourcetree/config</text></g><g id="edge6" class="edge"><title>mulle-sourcetree-to-cmake-&gt;.mulle/etc/sourcetree/config</title><path fill="none" stroke="#000" d="M109.48,-86.8C113.9,-75.05 119.85,-59.24 124.89,-45.84"/><polygon fill="#000" stroke="#000" points="128.29 -46.77 128.53 -36.18 121.74 -44.3 128.29 -46.77"/><text x="143.5" y="-57.8" font-family="Times,serif" font-size="14" text-anchor="middle">reads</text></g><g id="node8" class="node"><title>cmake/reflect/</title><polygon fill="brown" stroke="orange" points="421.5 -36 418.5 -40 397.5 -40 394.5 -36 304.5 -36 304.5 0 421.5 0 421.5 -36"/><text x="363" y="-14.3" fill="#fff" font-family="Times,serif" font-size="14" text-anchor="middle">cmake/reflect/</text></g><g id="edge7" class="edge"><title>mulle-sourcetree-to-cmake-&gt;cmake/reflect/</title><path fill="none" stroke="#000" d="M136.54,-86.83C147.28,-81.24 159.19,-74.94 170,-69 181.69,-62.58 183.54,-58.76 196,-54 227.2,-42.08 263.31,-33.87 293.96,-28.41"/><polygon fill="#000" stroke="#000" points="294.86 -31.81 304.13 -26.67 293.68 -24.91 294.86 -31.81"/><text x="221" y="-57.8" font-family="Times,serif" font-size="14" text-anchor="middle">writes</text></g><g id="edge8" class="edge"><title>mulle-sourcetree-to-c-&gt;.mulle/etc/sourcetree/config</title><path fill="none" stroke="#000" d="M291.67,-86.61C280.76,-75.89 265.6,-62.59 250,-54 239.72,-48.34 228.4,-43.47 217,-39.33"/><polygon fill="#000" stroke="#000" points="218.02 -35.98 207.43 -36.02 215.73 -42.59 218.02 -35.98"/><text x="293.5" y="-57.8" font-family="Times,serif" font-size="14" text-anchor="middle">reads</text></g><g id="node9" class="node"><title>src/reflect/</title><polygon fill="brown" stroke="orange" points="554.5 -36 551.5 -40 530.5 -40 527.5 -36 461.5 -36 461.5 0 554.5 0 554.5 -36"/><text x="508" y="-14.3" fill="#fff" font-family="Times,serif" font-size="14" text-anchor="middle">src/reflect/</text></g><g id="edge9" class="edge"><title>mulle-sourcetree-to-c-&gt;src/reflect/</title><path fill="none" stroke="#000" d="M320.03,-86.65C328.56,-75.67 340.94,-62.06 355,-54 357.21,-52.73 408.92,-41.03 451.62,-31.5"/><polygon fill="#000" stroke="#000" points="452.41 -34.91 461.41 -29.32 450.89 -28.08 452.41 -34.91"/><text x="380" y="-57.8" font-family="Times,serif" font-size="14" text-anchor="middle">writes</text></g><g id="edge11" class="edge"><title>mulle-match-to-cmake-&gt;cmake/reflect/</title><path fill="none" stroke="#000" d="M461.06,-86.97C450.52,-81.58 439.11,-75.37 429,-69 416.27,-60.99 402.93,-51.18 391.59,-42.37"/><polygon fill="#000" stroke="#000" points="393.75 -39.62 383.73 -36.18 389.42 -45.12 393.75 -39.62"/><text x="454" y="-57.8" font-family="Times,serif" font-size="14" text-anchor="middle">writes</text></g><g id="node10" class="node"><title>Filesystem</title><polygon fill="brown" stroke="brown" points="726.09 -18 690.55 -36 619.45 -36 583.91 -18 619.45 0 690.55 0 726.09 -18"/><text x="655" y="-14.3" fill="#fff" font-family="Times,serif" font-size="14" text-anchor="middle">Filesystem</text></g><g id="edge10" class="edge"><title>mulle-match-to-cmake-&gt;Filesystem</title><path fill="none" stroke="#000" d="M500.13,-86.85C502.98,-75.95 508.3,-62.36 518,-54 524.26,-48.6 561.86,-39.19 596.09,-31.49"/><polygon fill="#000" stroke="#000" points="597.1 -34.85 606.1 -29.26 595.58 -28.02 597.1 -34.85"/><text x="540.5" y="-57.8" font-family="Times,serif" font-size="14" text-anchor="middle">reads</text></g><g id="edge13" class="edge"><title>mulle-match-to-c-&gt;src/reflect/</title><path fill="none" stroke="#000" d="M637.22,-86.8C611.88,-73.51 576.65,-55.02 549.38,-40.71"/><polygon fill="#000" stroke="#000" points="550.94 -37.58 540.46 -36.03 547.69 -43.78 550.94 -37.58"/><text x="623" y="-57.8" font-family="Times,serif" font-size="14" text-anchor="middle">writes</text></g><g id="edge12" class="edge"><title>mulle-match-to-c-&gt;Filesystem</title><path fill="none" stroke="#000" d="M666.96,-86.8C664.91,-75.16 662.16,-59.55 659.81,-46.24"/><polygon fill="#000" stroke="#000" points="663.22 -45.41 658.03 -36.18 656.32 -46.63 663.22 -45.41"/><text x="685.5" y="-57.8" font-family="Times,serif" font-size="14" text-anchor="middle">reads</text></g></g></svg>