<?xml version="1.0" encoding="UTF-8" standalone="no"?>
<!DOCTYPE svg PUBLIC "-//W3C//DTD SVG 1.1//EN"
 "http://www.w3.org/Graphics/SVG/1.1/DTD/svg11.dtd">
<!-- Generated by graphviz version 2.43.0 (0)
 -->
<!-- Title: y Pages: 1 -->
<svg width="746pt" height="305pt"
 viewBox="0.00 0.00 746.00 305.00" xmlns="http://www.w3.org/2000/svg" xmlns:xlink="http://www.w3.org/1999/xlink">
<g id="graph0" class="graph" transform="scale(1 1) rotate(0) translate(4 301)">
<title>y</title>
<polygon fill="white" stroke="transparent" points="-4,4 -4,-301 742,-301 742,4 -4,4"/>
<!-- mulle&#45;sde -->
<g id="node1" class="node">
<title>mulle&#45;sde</title>
<polygon fill="none" stroke="blue" stroke-width="3" points="420,-297 334,-297 334,-261 420,-261 420,-297"/>
<text text-anchor="middle" x="377" y="-275.3" font-family="Times,serif" font-size="14.00" fill="blue">mulle&#45;sde</text>
</g>
<!-- mulle&#45;monitor -->
<g id="node2" class="node">
<title>mulle&#45;monitor</title>
<polygon fill="none" stroke="magenta" stroke-width="2" points="435.5,-210 318.5,-210 318.5,-174 435.5,-174 435.5,-210"/>
<text text-anchor="middle" x="377" y="-188.3" font-family="Times,serif" font-size="14.00" fill="magenta">mulle&#45;monitor</text>
</g>
<!-- mulle&#45;sde&#45;&gt;mulle&#45;monitor -->
<g id="edge1" class="edge">
<title>mulle&#45;sde&#45;&gt;mulle&#45;monitor</title>
<path fill="none" stroke="black" d="M377,-260.8C377,-249.16 377,-233.55 377,-220.24"/>
<polygon fill="black" stroke="black" points="380.5,-220.18 377,-210.18 373.5,-220.18 380.5,-220.18"/>
<text text-anchor="middle" x="411" y="-231.8" font-family="Times,serif" font-size="14.00"> executes</text>
</g>
<!-- mulle&#45;sourcetree&#45;to&#45;cmake -->
<g id="node3" class="node">
<title>mulle&#45;sourcetree&#45;to&#45;cmake</title>
<polygon fill="none" stroke="#fa8231" stroke-width="2" points="206,-123 0,-123 0,-87 206,-87 206,-123"/>
<text text-anchor="middle" x="103" y="-101.3" font-family="Times,serif" font-size="14.00" fill="#fa8231">mulle&#45;sourcetree&#45;to&#45;cmake</text>
</g>
<!-- mulle&#45;monitor&#45;&gt;mulle&#45;sourcetree&#45;to&#45;cmake -->
<g id="edge2" class="edge">
<title>mulle&#45;monitor&#45;&gt;mulle&#45;sourcetree&#45;to&#45;cmake</title>
<path fill="none" stroke="black" d="M321.88,-173.9C277.38,-160.1 214.68,-140.65 167.79,-126.1"/>
<polygon fill="black" stroke="black" points="168.62,-122.69 158.03,-123.07 166.54,-129.38 168.62,-122.69"/>
<text text-anchor="middle" x="291" y="-144.8" font-family="Times,serif" font-size="14.00"> executes</text>
</g>
<!-- mulle&#45;sourcetree&#45;to&#45;c -->
<g id="node4" class="node">
<title>mulle&#45;sourcetree&#45;to&#45;c</title>
<polygon fill="none" stroke="#fa8231" stroke-width="2" points="392,-123 224,-123 224,-87 392,-87 392,-123"/>
<text text-anchor="middle" x="308" y="-101.3" font-family="Times,serif" font-size="14.00" fill="#fa8231">mulle&#45;sourcetree&#45;to&#45;c</text>
</g>
<!-- mulle&#45;monitor&#45;&gt;mulle&#45;sourcetree&#45;to&#45;c -->
<g id="edge3" class="edge">
<title>mulle&#45;monitor&#45;&gt;mulle&#45;sourcetree&#45;to&#45;c</title>
<path fill="none" stroke="black" d="M363.04,-173.8C353.12,-161.59 339.65,-144.99 328.52,-131.28"/>
<polygon fill="black" stroke="black" points="330.96,-128.73 321.94,-123.18 325.53,-133.15 330.96,-128.73"/>
<text text-anchor="middle" x="381" y="-144.8" font-family="Times,serif" font-size="14.00"> executes</text>
</g>
<!-- mulle&#45;match&#45;to&#45;cmake -->
<g id="node5" class="node">
<title>mulle&#45;match&#45;to&#45;cmake</title>
<polygon fill="none" stroke="#fa8231" stroke-width="2" points="584,-123 410,-123 410,-87 584,-87 584,-123"/>
<text text-anchor="middle" x="497" y="-101.3" font-family="Times,serif" font-size="14.00" fill="#fa8231">mulle&#45;match&#45;to&#45;cmake</text>
</g>
<!-- mulle&#45;monitor&#45;&gt;mulle&#45;match&#45;to&#45;cmake -->
<g id="edge4" class="edge">
<title>mulle&#45;monitor&#45;&gt;mulle&#45;match&#45;to&#45;cmake</title>
<path fill="none" stroke="black" d="M401.28,-173.8C419.5,-160.9 444.62,-143.1 464.56,-128.98"/>
<polygon fill="black" stroke="black" points="466.62,-131.81 472.75,-123.18 462.57,-126.1 466.62,-131.81"/>
<text text-anchor="middle" x="479" y="-144.8" font-family="Times,serif" font-size="14.00"> executes</text>
</g>
<!-- mulle&#45;match&#45;to&#45;c -->
<g id="node6" class="node">
<title>mulle&#45;match&#45;to&#45;c</title>
<polygon fill="none" stroke="#fa8231" stroke-width="2" points="738,-123 602,-123 602,-87 738,-87 738,-123"/>
<text text-anchor="middle" x="670" y="-101.3" font-family="Times,serif" font-size="14.00" fill="#fa8231">mulle&#45;match&#45;to&#45;c</text>
</g>
<!-- mulle&#45;monitor&#45;&gt;mulle&#45;match&#45;to&#45;c -->
<g id="edge5" class="edge">
<title>mulle&#45;monitor&#45;&gt;mulle&#45;match&#45;to&#45;c</title>
<path fill="none" stroke="black" d="M435.83,-177.28C460.95,-171.16 490.52,-163.63 517,-156 548.23,-147.01 582.66,-135.87 610.93,-126.39"/>
<polygon fill="black" stroke="black" points="612.3,-129.62 620.66,-123.11 610.07,-122.98 612.3,-129.62"/>
<text text-anchor="middle" x="597" y="-144.8" font-family="Times,serif" font-size="14.00"> executes</text>
</g>
<!-- .mulle/etc/sourcetree/config -->
<g id="node7" class="node">
<title>.mulle/etc/sourcetree/config</title>
<polygon fill="brown" stroke="orange" points="236.5,-36 27.5,-36 27.5,0 242.5,0 242.5,-30 236.5,-36"/>
<polyline fill="none" stroke="orange" points="236.5,-36 236.5,-30 "/>
<polyline fill="none" stroke="orange" points="242.5,-30 236.5,-30 "/>
<text text-anchor="middle" x="135" y="-14.3" font-family="Times,serif" font-size="14.00" fill="white">.mulle/etc/sourcetree/config</text>
</g>
<!-- mulle&#45;sourcetree&#45;to&#45;cmake&#45;&gt;.mulle/etc/sourcetree/config -->
<g id="edge6" class="edge">
<title>mulle&#45;sourcetree&#45;to&#45;cmake&#45;&gt;.mulle/etc/sourcetree/config</title>
<path fill="none" stroke="black" d="M109.48,-86.8C113.9,-75.05 119.85,-59.24 124.89,-45.84"/>
<polygon fill="black" stroke="black" points="128.29,-46.77 128.53,-36.18 121.74,-44.3 128.29,-46.77"/>
<text text-anchor="middle" x="143.5" y="-57.8" font-family="Times,serif" font-size="14.00"> reads</text>
</g>
<!-- cmake/reflect/ -->
<g id="node8" class="node">
<title>cmake/reflect/</title>
<polygon fill="brown" stroke="orange" points="421.5,-36 418.5,-40 397.5,-40 394.5,-36 304.5,-36 304.5,0 421.5,0 421.5,-36"/>
<text text-anchor="middle" x="363" y="-14.3" font-family="Times,serif" font-size="14.00" fill="white">cmake/reflect/</text>
</g>
<!-- mulle&#45;sourcetree&#45;to&#45;cmake&#45;&gt;cmake/reflect/ -->
<g id="edge7" class="edge">
<title>mulle&#45;sourcetree&#45;to&#45;cmake&#45;&gt;cmake/reflect/</title>
<path fill="none" stroke="black" d="M136.54,-86.83C147.28,-81.24 159.19,-74.94 170,-69 181.69,-62.58 183.54,-58.76 196,-54 227.2,-42.08 263.31,-33.87 293.96,-28.41"/>
<polygon fill="black" stroke="black" points="294.86,-31.81 304.13,-26.67 293.68,-24.91 294.86,-31.81"/>
<text text-anchor="middle" x="221" y="-57.8" font-family="Times,serif" font-size="14.00"> writes</text>
</g>
<!-- mulle&#45;sourcetree&#45;to&#45;c&#45;&gt;.mulle/etc/sourcetree/config -->
<g id="edge8" class="edge">
<title>mulle&#45;sourcetree&#45;to&#45;c&#45;&gt;.mulle/etc/sourcetree/config</title>
<path fill="none" stroke="black" d="M291.67,-86.61C280.76,-75.89 265.6,-62.59 250,-54 239.72,-48.34 228.4,-43.47 217,-39.33"/>
<polygon fill="black" stroke="black" points="218.02,-35.98 207.43,-36.02 215.73,-42.59 218.02,-35.98"/>
<text text-anchor="middle" x="293.5" y="-57.8" font-family="Times,serif" font-size="14.00"> reads</text>
</g>
<!-- src/reflect/ -->
<g id="node9" class="node">
<title>src/reflect/</title>
<polygon fill="brown" stroke="orange" points="554.5,-36 551.5,-40 530.5,-40 527.5,-36 461.5,-36 461.5,0 554.5,0 554.5,-36"/>
<text text-anchor="middle" x="508" y="-14.3" font-family="Times,serif" font-size="14.00" fill="white">src/reflect/</text>
</g>
<!-- mulle&#45;sourcetree&#45;to&#45;c&#45;&gt;src/reflect/ -->
<g id="edge9" class="edge">
<title>mulle&#45;sourcetree&#45;to&#45;c&#45;&gt;src/reflect/</title>
<path fill="none" stroke="black" d="M320.03,-86.65C328.56,-75.67 340.94,-62.06 355,-54 357.21,-52.73 408.92,-41.03 451.62,-31.5"/>
<polygon fill="black" stroke="black" points="452.41,-34.91 461.41,-29.32 450.89,-28.08 452.41,-34.91"/>
<text text-anchor="middle" x="380" y="-57.8" font-family="Times,serif" font-size="14.00"> writes</text>
</g>
<!-- mulle&#45;match&#45;to&#45;cmake&#45;&gt;cmake/reflect/ -->
<g id="edge11" class="edge">
<title>mulle&#45;match&#45;to&#45;cmake&#45;&gt;cmake/reflect/</title>
<path fill="none" stroke="black" d="M461.06,-86.97C450.52,-81.58 439.11,-75.37 429,-69 416.27,-60.99 402.93,-51.18 391.59,-42.37"/>
<polygon fill="black" stroke="black" points="393.75,-39.62 383.73,-36.18 389.42,-45.12 393.75,-39.62"/>
<text text-anchor="middle" x="454" y="-57.8" font-family="Times,serif" font-size="14.00"> writes</text>
</g>
<!-- Filesystem -->
<g id="node10" class="node">
<title>Filesystem</title>
<polygon fill="brown" stroke="brown" points="726.09,-18 690.55,-36 619.45,-36 583.91,-18 619.45,0 690.55,0 726.09,-18"/>
<text text-anchor="middle" x="655" y="-14.3" font-family="Times,serif" font-size="14.00" fill="white">Filesystem</text>
</g>
<!-- mulle&#45;match&#45;to&#45;cmake&#45;&gt;Filesystem -->
<g id="edge10" class="edge">
<title>mulle&#45;match&#45;to&#45;cmake&#45;&gt;Filesystem</title>
<path fill="none" stroke="black" d="M500.13,-86.85C502.98,-75.95 508.3,-62.36 518,-54 524.26,-48.6 561.86,-39.19 596.09,-31.49"/>
<polygon fill="black" stroke="black" points="597.1,-34.85 606.1,-29.26 595.58,-28.02 597.1,-34.85"/>
<text text-anchor="middle" x="540.5" y="-57.8" font-family="Times,serif" font-size="14.00"> reads</text>
</g>
<!-- mulle&#45;match&#45;to&#45;c&#45;&gt;src/reflect/ -->
<g id="edge13" class="edge">
<title>mulle&#45;match&#45;to&#45;c&#45;&gt;src/reflect/</title>
<path fill="none" stroke="black" d="M637.22,-86.8C611.88,-73.51 576.65,-55.02 549.38,-40.71"/>
<polygon fill="black" stroke="black" points="550.94,-37.58 540.46,-36.03 547.69,-43.78 550.94,-37.58"/>
<text text-anchor="middle" x="623" y="-57.8" font-family="Times,serif" font-size="14.00"> writes</text>
</g>
<!-- mulle&#45;match&#45;to&#45;c&#45;&gt;Filesystem -->
<g id="edge12" class="edge">
<title>mulle&#45;match&#45;to&#45;c&#45;&gt;Filesystem</title>
<path fill="none" stroke="black" d="M666.96,-86.8C664.91,-75.16 662.16,-59.55 659.81,-46.24"/>
<polygon fill="black" stroke="black" points="663.22,-45.41 658.03,-36.18 656.32,-46.63 663.22,-45.41"/>
<text text-anchor="middle" x="685.5" y="-57.8" font-family="Times,serif" font-size="14.00"> reads</text>
</g>
</g>
</svg>
